<?xml version="1.0" encoding="UTF-8"?>
<!DOCTYPE svg PUBLIC "-//W3C//DTD SVG 1.1//EN" "http://www.w3.org/Graphics/SVG/1.1/DTD/svg11.dtd">
<svg xmlns="http://www.w3.org/2000/svg" version="1.1" width="2400px" height="2400px" style="shape-rendering:geometricPrecision; text-rendering:geometricPrecision; image-rendering:optimizeQuality; fill-rule:evenodd; clip-rule:evenodd" xmlns:xlink="http://www.w3.org/1999/xlink">
<g><path style="opacity:0.998" fill="white" d="M 1150.5,-0.5 C 1183.17,-0.5 1215.83,-0.5 1248.5,-0.5C 1545.44,15.2445 1802.78,123.078 2020.5,323C 2222.83,515.463 2345.33,750.63 2388,1028.5C 2393.5,1069.17 2397.33,1109.83 2399.5,1150.5C 2399.5,1183.17 2399.5,1215.83 2399.5,1248.5C 2383.76,1545.44 2275.92,1802.78 2076,2020.5C 1879.51,2226.67 1639.35,2349.84 1355.5,2390C 1319.78,2394.34 1284.11,2397.5 1248.5,2399.5C 1215.83,2399.5 1183.17,2399.5 1150.5,2399.5C 860.138,2384.27 607.138,2280.44 391.5,2088C 195.113,1906.48 70.9468,1683.65 19,1419.5C 8.7957,1362.77 2.2957,1305.77 -0.5,1248.5C -0.5,1215.83 -0.5,1183.17 -0.5,1150.5C 16.4463,839.04 133.28,572.373 350,350.5C 571.95,133.491 838.784,16.4909 1150.5,-0.5 Z M 985.5,634.5 C 1183.3,631.713 1378.63,652.213 1571.5,696C 1688.52,722.784 1801.52,761.117 1910.5,811C 1955.06,831.271 1997.72,854.604 2038.5,881C 2079.9,920.893 2088.73,967.06 2065,1019.5C 2038.59,1063.29 1999.76,1082.45 1948.5,1077C 1939.2,1075.34 1930.2,1072.68 1921.5,1069C 1812.9,1005.71 1697.56,958.379 1575.5,927C 1415.79,885.744 1253.45,863.077 1088.5,859C 946.842,854.479 806.175,864.145 666.5,888C 614.108,897.348 562.441,909.681 511.5,925C 457.937,935.786 416.104,918.619 386,873.5C 364.886,834.437 365.552,795.771 388,757.5C 403.308,734.541 424.141,718.708 450.5,710C 568.259,675.929 688.259,653.929 810.5,644C 868.895,639.006 927.228,635.839 985.5,634.5 Z M 972.5,1047.5 C 1192.26,1044.85 1405.59,1080.35 1612.5,1154C 1700,1186.25 1783.67,1226.25 1863.5,1274C 1897.53,1296.23 1912.7,1327.73 1909,1368.5C 1902.37,1402.6 1883.2,1426.76 1851.5,1441C 1826.56,1450.2 1801.9,1449.53 1777.5,1439C 1653.96,1364.42 1521.63,1311.08 1380.5,1279C 1157.04,1227.02 932.369,1221.02 706.5,1261C 656.617,1270.8 607.283,1282.8 558.5,1297C 520.794,1300.89 490.627,1287.73 468,1257.5C 444.627,1217.9 446.96,1179.9 475,1143.5C 488.463,1128.73 504.963,1118.9 524.5,1114C 670.979,1071.81 820.313,1049.65 972.5,1047.5 Z M 964.5,1439.5 C 1122.9,1434.23 1278.23,1453.4 1430.5,1497C 1537.93,1528.89 1638.93,1574.56 1733.5,1634C 1762.69,1662.31 1767.85,1694.47 1749,1730.5C 1728.73,1759.2 1701.23,1770.04 1666.5,1763C 1660.67,1761.06 1655.01,1758.72 1649.5,1756C 1509.09,1670.86 1357.09,1618.53 1193.5,1599C 1067.47,1584.78 941.474,1585.12 815.5,1600C 738.467,1609.34 662.133,1622.67 586.5,1640C 542.321,1642.18 514.488,1622.01 503,1579.5C 498.644,1541.7 513.477,1514.54 547.5,1498C 684.606,1464.16 823.606,1444.66 964.5,1439.5 Z"/></g>
</svg>
