<?xml version="1.0" encoding="utf-8"?>
<!-- Generator: Adobe Illustrator 15.0.0, SVG Export Plug-In . SVG Version: 6.00 Build 0)  -->
<!DOCTYPE svg PUBLIC "-//W3C//DTD SVG 1.1//EN" "http://www.w3.org/Graphics/SVG/1.1/DTD/svg11.dtd">
<svg fill="white" version="1.1" id="Layer_1" xmlns="http://www.w3.org/2000/svg" xmlns:xlink="http://www.w3.org/1999/xlink" x="0px" y="0px"
	 width="97.394px" height="97.394px" viewBox="1.303 1.303 97.394 97.394" enable-background="new 1.303 1.303 97.394 97.394"
	 xml:space="preserve">
<path d="M13.804,1.303h72.393c6.875,0,12.5,5.09,12.5,12.5v72.394c0,7.41-5.625,12.5-12.5,12.5H13.804
	c-6.877,0-12.501-5.09-12.501-12.5V13.803C1.303,6.393,6.927,1.303,13.804,1.303L13.804,1.303z M72.251,12.124
	c-2.412,0-4.384,1.972-4.384,4.385v10.495c0,2.412,1.972,4.385,4.384,4.385h11.008c2.411,0,4.384-1.973,4.384-4.385V16.509
	c0-2.413-1.973-4.385-4.384-4.385H72.251L72.251,12.124z M87.689,42.49h-8.572c0.811,2.648,1.25,5.453,1.25,8.355
	c0,16.2-13.555,29.332-30.274,29.332c-16.718,0-30.272-13.132-30.272-29.332c0-2.904,0.438-5.708,1.25-8.355h-8.945v41.141
	c0,2.129,1.742,3.872,3.872,3.872H83.82c2.129,0,3.871-1.741,3.871-3.872V42.49H87.689z M50.092,30.836
	c-10.802,0-19.56,8.485-19.56,18.953c0,10.468,8.758,18.953,19.56,18.953c10.803,0,19.563-8.485,19.563-18.953
	C69.654,39.321,60.896,30.836,50.092,30.836z"/>
</svg>
