<?xml version="1.0" encoding="utf-8"?>
<!-- Generator: Adobe Illustrator 15.0.0, SVG Export Plug-In . SVG Version: 6.00 Build 0)  -->
<!DOCTYPE svg PUBLIC "-//W3C//DTD SVG 1.1//EN" "http://www.w3.org/Graphics/SVG/1.1/DTD/svg11.dtd">
<svg version="1.1" id="Icons" xmlns="http://www.w3.org/2000/svg" xmlns:xlink="http://www.w3.org/1999/xlink" x="0px" y="0px"
	 width="90px" height="86px" viewBox="5 7 90 86" enable-background="new 5 7 90 86" xml:space="preserve">
<path id="LinkedIn" d="M95,59.727V93H75.71V61.955c0-7.799-2.79-13.121-9.772-13.121c-5.33,0-8.502,3.587-9.897,7.057
	c-0.509,1.24-0.64,2.967-0.64,4.703V93H36.104c0,0,0.26-52.58,0-58.028h19.294v8.225c-0.039,0.062-0.09,0.128-0.127,0.188h0.127
	v-0.188c2.563-3.948,7.142-9.588,17.389-9.588C85.482,33.609,95,41.903,95,59.727z M15.919,7C9.318,7,5,11.33,5,17.024
	c0,5.57,4.193,10.031,10.663,10.031h0.129c6.729,0,10.914-4.46,10.914-10.031C26.579,11.33,22.521,7,15.919,7z M6.146,93h19.289
	V34.972H6.146V93z"/>
</svg>
