<?xml version="1.0" ?>
<svg fill="currentColor" height="32px" version="1.1" viewBox="0 0 32 32" width="32px" xmlns="http://www.w3.org/2000/svg" xmlns:xlink="http://www.w3.org/1999/xlink">
  <title/><desc/>
  <g fill-rule="evenodd" id="hamburger,-List,-hamburger-left,-menu,-website" stroke="none" stroke-width="1">
    <path d="M4,17.0000589 C3.44771525,17.0000589 3,16.5523436 3,16.0000589 C3,15.4477741 3.44771525,15.0000589 4,15.0000589 L22,15.0000589 C22.5522847,15.0000589 23,15.4477741 23,16.0000589 C23,16.5523436 22.5522847,17.0000589 22,17.0000589 L4,17.0000589 Z M10,25.0000589 C9.44771525,25.0000589 9,24.5523436 9,24.0000589 C9,23.4477741 9.44771525,23.0000589 10,23.0000589 L28,23.0000589 C28.5522847,23.0000589 29,23.4477741 29,24.0000589 C29,24.5523436 28.5522847,25.0000589 28,25.0000589 L10,25.0000589 Z M11,9.00005885 C10.4477153,9.00005885 10,8.5523436 10,8.00005885 C10,7.4477741 10.4477153,7.00005885 11,7.00005885 L29,7.00005885 C29.5522847,7.00005885 30,7.4477741 30,8.00005885 C30,8.5523436 29.5522847,9.00005885 29,9.00005885 L11,9.00005885 Z" id="Combined-Shape"/>
  </g>
</svg>