<?xml version="1.0" encoding="utf-8"?>
<!-- Generator: Adobe Illustrator 15.1.0, SVG Export Plug-In . SVG Version: 6.00 Build 0)  -->
<!DOCTYPE svg PUBLIC "-//W3C//DTD SVG 1.1//EN" "http://www.w3.org/Graphics/SVG/1.1/DTD/svg11.dtd">
<svg version="1.1" id="Layer_1" xmlns="http://www.w3.org/2000/svg" xmlns:xlink="http://www.w3.org/1999/xlink" x="0px" y="0px"
	 width="172.776px" height="148.459px" viewBox="0 0 172.776 148.459" enable-background="new 0 0 172.776 148.459"
	 xml:space="preserve">
<path fill="#F20DAF" d="M168.276,77.684c1.504-0.958,3.006-1.935,4.5-2.906c-14.976,3.563-29.731,7.927-44.416,12.488
	c-0.52-4.987-0.94-9.981-1.266-14.993c14.865,1.439,29.793,2.285,44.711,2.456c-15.244-5.264-30.399-10.796-45.537-16.392
	c-0.773-13.972-1.583-27.938-3.919-41.753c-1.819-17.892-19.688-23.358-27.983-6.106c-4.376,10.355-8.068,21.008-11.583,31.691
	c-4.833-1.804-9.667-3.612-14.514-5.398c-11.473-4.465-22.872-9.107-34.34-13.577c-5.879-2.184-11.728-5.255-18.135-5.066
	c-7.009,0.211-14.11,5.093-15.366,12.246c-4.715,17.083,30.579,40.952,55.63,57.05c-0.092,0.145-0.193,0.294-0.286,0.443
	c-4.697,7.993-11.06,15.801-11.991,25.311c-1.143,12.114,11.587,19.417,22.423,16.363c11.57-3.317,22.723-7.755,33.598-12.879
	c12.836,9.008,25.5,18.263,38.181,27.49c1.968,1.433,3.937,2.874,5.901,4.307c-2.24-3.027-4.574-5.998-6.851-9.004
	c-2.048-11.173-5.089-28.012-6.891-38.954C143.009,93.058,155.652,85.201,168.276,77.684 M103.436,35.968
	c0.505,3.687,1.261,8.861,2.205,14.701c-2.855-1.07-5.721-2.125-8.577-3.19C99.288,43.563,101.406,39.712,103.436,35.968
	 M71.622,63.961c-0.606,0.89-1.217,1.782-1.815,2.671c-1.586-1.391-3.164-2.788-4.75-4.186
	C67.246,62.939,69.425,63.498,71.622,63.961 M70.796,105.102c0.993-2.013,1.986-4.117,2.979-6.183c0.716,0.492,1.397,0.971,2,1.416
	c1.146,0.747,2.271,1.529,3.418,2.285C76.395,103.454,73.599,104.298,70.796,105.102 M83.139,78.589
	c1.688-3.812,3.362-7.646,5.019-11.52c6.987,1.215,13.995,2.276,21.03,3.204c1.447,7.097,3.028,13.741,4.641,18.469
	c0.294,0.932,0.628,1.854,0.936,2.786c-4.657,1.473-9.316,2.958-13.973,4.434C95.14,89.933,89.225,84.167,83.139,78.589
	 M134.894,136.648c-6.96-9.106-14.053-18.114-21.545-26.784c2.312-1.226,4.588-2.531,6.885-3.796
	C124.577,116.505,129.622,126.66,134.894,136.648"/>
<path display="none" fill="#F20DAF" d="M-71.751,66.963c0.188-3.707-0.387-7.398-2.006-10.759
	c-4.81-9.476-15.875-10.766-23.336-6.609c-3.315-0.244-6.718,0.431-9.84,2.474c-16.95,9.351-11.051,34.951,6.139,40.031
	c14.538,3.963,27.298-9.548,28.908-23.504C-71.813,68.052-71.76,67.507-71.751,66.963"/>
<path display="none" fill="#F20DAF" d="M-211.056,54.868c-6.793,4.442-13.074,10.313-15.509,18.278
	c-2.67,8.979-3.056,20.087,3.452,27.514c7.712,9.315,21.85,8.757,30.133,0.918c9.878-3.388,18.39-11.645,19.921-22.116
	C-168.408,57.405-192.929,42.948-211.056,54.868"/>
<path display="none" fill="#F20DAF" d="M-309.604,113.068c-4.008,3.511-6.536,9.1-5.557,14.447
	c0.572,5.352,5.405,10.402,10.7,10.371c1.022,0.131,2.061,0.168,2.988,0.146c7.068,0.092,11.924-6.108,13.936-12.304
	C-283.452,111.223-298.908,103.489-309.604,113.068"/>
</svg>
