<?xml version="1.0" encoding="UTF-8" standalone="no"?>
<!DOCTYPE svg PUBLIC "-//W3C//DTD SVG 1.1//EN" "http://www.w3.org/Graphics/SVG/1.1/DTD/svg11.dtd">
<svg xmlns="http://www.w3.org/2000/svg" xml:space="preserve" fill-rule="evenodd" stroke-linejoin="round" stroke-miterlimit="2" clip-rule="evenodd" viewBox="0 0 924 359">
  <path fill="#fff" fill-rule="nonzero" d="m921.8 110.1-4-5.1-10.2-10.6V94l-10-10.3-5.6-7-1.6-1.3-.8-1.2-1.3-1.1c-.7-.7-4.6-1.6-5.6-1.3l-20.9 7.3-4.8 1.1-20.9 7.9-5.9 1.4-3.2 1.6-8.9 3.3c-2 .7-3.9-1-3.4-3.1l9.4-42.2c.2-.8-1.1-3.9-1.6-4.5l-8.7-11.7-4.3-3.8-.4-1.2-9.2-9.3-4.4-5.7-5.5-6.5-3.5-4.7c-.7-.9-7.5-2.1-8.6-1.7l-21.7 7.9-6.8 1.2-6.9 3.1-15.1 6.1c-.6.2-1.1.6-1.4 1.2l-7.1 10.9-22 40.7c-.4.6-.4 1.4-.2 2.1l2.4 7.2.6.5 3.1 7.1.6 2.1 4.4 11.1.8 1.8.2 1.3 2.9 5.4 2.8 7.8 1.6 2c.2.6.7 1.6-.6 8.8l-2 25.8.3 1.1-.4.9v4.2l-.8 5.7-1.2 15.3c-.1 2.1.4 4.2 1.4 5.9l19.4-67.6-9.9-45.1c-.3 0-.6.1-.9.1-3.6 0-6.6-3-6.6-6.6 0-3.6 3-6.6 6.6-6.6 3.6 0 6.6 3 6.6 6.6 0 2.3-1.2 4.4-3 5.5l9 37.4 1 2.4.2 2.4 1.4 5.7-6.5 19.2-2 6.5-.1 1.6-1.3 3.3-.1 1.2-6.3 19.9-3.1 17.1 46.3-95.5-3.7-30-.8-3.8.1-1.7-1.2-9.8-.3-1v-1.9l-.4-2.9c-4.7-.3-8.4-4.2-8.4-9v-.2c-.2-.1-.4-.2-.2-.6.2-.6.2-.4.2-.4h.1c.6-4.4 4.4-7.9 8.9-7.9 5 0 9 4 9 9 0 4.1-2.8 7.6-6.6 8.7l6.5 51.1 9.9-24.1c-1.2-.8-1.9-2.2-1.9-3.7 0-2.5 2-4.5 4.5-4.5s4.5 2 4.5 4.5-2 4.5-4.5 4.5h-.4l-5 14.8-1 1.8-.6 2.9-13.7 27.2c.8.7.9 1.7-1.1 2.1l-13.8 27.5-2 2.8-1.7 4.7-17.3 34.6 17.4-19 1.5-2.7 16-16.5 17.7-20.4 4.7-4.1 36.1-15.2c.2-3.3 2.8-5.8 6.1-5.8 3.4 0 6.1 2.7 6.1 6.1 0 3.4-2.7 6.1-6.1 6.1-2.3 0-4.3-1.3-5.4-3.1v.2l-34.6 15.1-50.1 56 15.8-10.1 1.7-.8 5.7-4 10.6-6.3 45-29.7 9.1-5.2 37-8.3c0-5.1 4.1-9.2 9.2-9.2s9.2 4.1 9.2 9.2-4.1 9.2-9.2 9.2c-3.5 0-6.6-2-8.2-4.9l-36.6 8.2-10.9 7.1c.3.5.3 1.4.3 1.4s-.5 1.8-1.2.7c-.2-.4-.4-.8-.4-1.1l-68.9 45.1 97.4-37.9 9.9-.6c0-.1 0-.2.2-.2.1 0 .2 0 .2.1l47.2-2.6c.6-2.3 2.7-3.9 5.1-3.9 2.9 0 5.3 2.4 5.3 5.3s-2.4 5.3-5.3 5.3c-2.6 0-4.7-1.8-5.2-4.2l-39.4 2.1-3.9.4-12.6 2.3-25.8 10.1-4.3 2.1-13 4.7-55.1 19.9 72.5-2.8c.1-.7.4-1.4.9-1.4.6.1 1.2.1.6 1.3l10.7-.4-.2-.9c.5.1.8.5 1.1.8l14.6-.6 8-4.6h.5l10.3-6c-.1-.4-.1-.9-.1-1.4 0-5 4-9 9-9s9 4 9 9-4 9-9 9c-3 0-5.6-1.4-7.2-3.6l-18.3 10.9-2.7-.2-6.5.4-15.9.4-3.6.5-2.3-.3-15.3.6-1.7-.2-75.5 2 4.1 3.8c1.4 1.3 3.2 2 5 2.1l7.2.3 1.1.2 1.6-.1 5.5.2 4.4.3h8.5l6.2.5 30.2 1.3.5.2 1.3-.1 15.9.9 1.7-.1 7 .1 18.7 1 1.2.3 2-.2 12.9.4 1.2.2c.6 0 1.3-.2 1.8-.6l.7-.6 17.8-14.5 5.4-2.8 4-4.9 27.7-22.5c.4-.3.7-.7.8-1.2l2.2-9.6 2.7-7.7 1.8-11.8 2.1-14.7c.4.3-.5-3.3-1.2-4.1Zm-195.2 9.8c0 1.4-1.7 2.7-1.7 2.7l-.8-1.4 2.5-1.3Zm-8.1-19.6c1.7-.5 4.1-.4 4.2.8.1 1.2.4 2.6-4.2.6 0 0-1.7-.9 0-1.4Zm-7.3-46s.7-.4.7.4-.3.6-.9.4c-.6-.2.2-.8.2-.8Zm.4 16.6c-.3 1-1.9.5-1.9.5s-1.7-.9-.4-1.3c1.3-.4 2.6-.2 2.3.8Zm2.3-8.7c-.6 0-.4-1.3-.4-1.3.2-.4 1-.1 1.4.3.4.4-.3 1-1 1Zm8.1-18.9c-.6.4-1.2-.5-1.2-.5s-.5-1.1.3-.8c.8.3 1.4.9.9 1.3Zm4.5-3.7c-.3-.2.2-.8.2-.8.2-.1.5.3.6.7.1.3-.5.3-.8.1Zm10.6 19.5c-1.4 2.2-3.6 3.7-4.4 1.8-.8-1.9 2.2-3.2 2.2-3.2s3.6-.8 2.2 1.4Zm41.3-15.7c-.1 1.3-1.2 0-1.2 0s-.8-1.2.4-1.5c1-.4.9.2.8 1.5Zm-8.8 81.9c-.8.4-.6.2-.6.2s-.1-.5-.4-.9c-.2-.4 1.3-.9 1.3-.5 0 .3.5.8-.3 1.2Zm48.8-67.8c.6-.6.9.6.9.6s.1 1-.9.6-.6-.6 0-1.2Zm-3 16.3c-1.6-.5.6-2.4.6-2.4s.9 2.8-.6 2.4Zm-.8-16.9s-1.8-.3-1.2-1.6c.7-1.4 1.2 1.6 1.2 1.6Zm-1.1-12.3c.6.6-1.2 1.4-1.2 1.4-.6.1-1-.9-.9-1.6.1-.8 1.5-.4 2.1.2Zm-1.2 14.8s2.8-1.4 2.8 1.5-1.1 2.3-3.6 1.5c-2.4-.7.8-3 .8-3Zm-16.1-7.2c.9-.6 1-.2 1.3.6.3.7-1.2.4-1.2.4s-1-.4-.1-1Zm1.7 5.1c.4-.7 1.8.2 1.8.2.4.4-.4 1.1-1.2 1.4-.8.3-.9-.9-.6-1.6ZM786 35.7c-.6-.1-.4-1.9 0-2.9s1.5.2 1.7 1.5c.3 1.2-1.7 1.4-1.7 1.4Zm11.3 96.3s-.4.9-.8.5.8-.5.8-.5Zm-13.2 10.4c-.1.2-.5.1-.8-.2-.3-.2.2-.6.5-.6.4.1.3.8.3.8Zm1.4 3.8s-.4.2-.4-.2.2-.3.5-.2c.4.1-.1.4-.1.4Zm9.1-.7c-.1.6-.8 0-.8 0s-.5-.6.2-.7c.7-.2.6.1.6.7Zm-5.5-14.3c.4-.1.6.5.6.5 0 .2-.5.2-.9.1-.4 0-.1-.4.3-.6Zm-22.2-11s-.7.6-1.2-.1 0-.7.9-.8c1 0 .3.9.3.9Zm32.8 21.5c-.4-.1-.3-.9 0-1.4.3-.5 1 .1 1.1.7.1.6-1.1.7-1.1.7Zm-14.8-26.8c-.7-.5.5-1.6.5-1.6.5-.3 1.1.6 1.2 1.4.2.7-1.1.7-1.7.2Zm16.9 12.4c-.2-.3.4-.3.4-.3s.4.1.2.4c-.3.4-.4.2-.6-.1Zm1.6 6.3c-.6.9-1.3-.6-1.3-.6s-.4-1.3.9-1c1.3.3 1 .7.4 1.6Zm6.6-2.6c-.5.8-1.3-.6-1.3-.6s1.7-.3 1.3.6Zm-2.5-34.2c-.7-.5.5-1.6.5-1.6.5-.3 1.1.6 1.2 1.4.2.6-1 .7-1.7.2Zm3.5-9.3c-.6.8-.8.4-1.2-.2-.5-.7.8-.7.8-.7s1 .1.4.9Zm5.5 40.6c-.2 1.1-2.3.3-2.3.3-.6-.4.2-1.6 1-2.2.9-.6 1.5.8 1.3 1.9Zm-36.7 35.8c-.1.1-.2.3-.5.1-.3-.2-.2-.2-.2-.2s.1-.1.2-.3c.2-.1.6.3.5.4Zm38.5-8.7s-.2.1-.3.2c-.1.1-.4-.3-.3-.4.1 0 .2-.2.4 0l.2.2Zm12.4-16.5s-2.2 2.5-2.4.2c-.2-2.3.6-4.6 2.2-3.6 1.6.9.2 3.4.2 3.4Zm15.8 9.3c-.1.2-.5.1-.8-.2-.3-.2.2-.6.5-.6.4 0 .3.8.3.8Zm2.3-5.4c-.7.2-1.5.2-1.3-.4.2-.6 1.1-.3 1.1-.3s1 .5.2.7Zm7.4-10.1c0-.2-.2-.4.1-.6.3-.2.3-.1.3-.1s.1.3.2.4c0 .3-.6.5-.6.3Zm5.5 3.3c-.8 0-1.7-1.2-.1-1.4 0-.1.9 1.4.1 1.4Zm12.3.5c0-1.8 2.7-3.4 2.7-3.4l1.4 1.8-4.1 1.6Zm3.5 7.3c-.7.2-1.7.2-1.7-.4-.1-.6-.2-1.3 1.7-.3 0 0 .7.5 0 .7Zm-96.3 37.1s-.7.2-.4-.3c.3-.4.7-.7.8-.4.1.4-.4.7-.4.7Zm5.7 7c-.2.3-.4-.2-.4-.2s-.1-.4.3-.3c.4 0 .3.2.1.5Zm4.4-.8c-.1.4-.8.1-.8.1-.2-.1.1-.5.3-.7.3-.3.6.2.5.6Zm1.5-10.8c-1.2.2-1.6-1.6-1.6-1.6s0-2.2 1.1-1.1 1.7 2.5.5 2.7Zm21.6-2.7s-.2.6-.5.1-.4-1.3 0-1.4c.4-.1.8-.4.5 1.3Zm5.9-3.3-.6-.7c.5-.1 1 .3 1 .3l-.4.4Zm8.8-.5s-2 .8-1.7-.2c.3-1.1 1.9-2.1 1.7.2Zm4.6-6.2s-.3 0-.6.1-.3-.8-.1-.8c.2 0 .5-.2.7.3.2.5 0 .4 0 .4ZM795 200.3c.4-.8 2.5-1.6 2.2.2 0 0-2.6.7-2.2-.2Zm8-4.7s-.4 0-.7.1c-.3.1-.4-.6-.2-.6.3 0 .7-.2.8.2.2.4.1.3.1.3Zm29.7 2.8s-.5.8-1.1.4c-.5-.3 1.1-.4 1.1-.4Zm-1.1 3.6c-.9-.3.7-1 .7-1 .6-.2 1.4.4 1.6.8.2.5-1.4.5-2.3.2Zm4.6-5.7c-.8.5-1 .2-1.6-.2-.6-.4 1.1-.4 1.1-.4s1.2.2.5.6Z"/>
  <path fill="#fff" fill-rule="nonzero" d="M48.2 158.5c0 .2.1.4.3.4v-.3l-.4-.6.1.5Z"/>
  <path fill="#fff" fill-rule="nonzero" d="M266.5 334.2c.3-5.9-.7-11.6 0-16.9-.1-.6.1-.7-.6-.5-13.5-1.4-28.1-.6-41.6-.3-3.4-.7-8.7-.3-12.2 0-1.3.7-3.7-1.4-4.9.1-1.2-.6-5.3-.9-6.1.2-.6-.8-1.7-.8-2.4-.1-.3-.8-9.6-.9-9.8.1-9.6-1.2-23.5-1-32.9 0-.9-1.3-2.4-.1-3.6-.2-.2-.8-7.1-.5-7.4-.1-.6-1-4.8.4-5.2-.3-1.3-.2-3.3.4-4.5.7-.3-.1-1.6-1-1.9-.5.2-.3-1.5-.1-1.6-.2-16.6.6-35.6-.8-52.7.4-1-.5-6.5-1-6.7.8-.6-.1-.9-.6-1-1.2-.1.1-6-.2-5.9.2-2.8.3-7.4-1.2-9.8.4-1-.7-3.8-.9-4.8-.1-3.2-1.5-8.1.5-11.2-.4-1.7.4-8.4-1.2-6.1 1.9-.8.3-.5 2.5-.5 3.1.8.7.6.5 0 1 .6.5-.6 4.4.4 4.5-.6.7-.6 1.9.2 2.5-.4.7-.7 1.7 0 2.4-.6.7-.7 2.2-.6 3 .8.5.3 1 0 1.5-.2 1.2.2 3.7 0 5.1 1.7 2.1-2.9 4.3 4.4 3 9.6.1 22-.2 31.7-.5.7-.2 1.2-.6 1.6.1 2.2.2 4.7-.6 6.5-.1 2.5-.4 5.8.6 7.7-.6 3.5.8 7.7.1 11.6.3 1-.7 7 .8 7.9-.7 1.6.7 4.7.9 6.1-.2 2.5.9 7.4 1 9.7-.2 9.1 1.5 19.4-.3 29.8.1 1.5.2 9.6-.4 10.5-.7 1.7 1.8 6.4-1.1 7.9.3l2.8-.1c.2-.5 1.1-.6 1.5-.6 1.3 1 6 .7 7.4-.1 2.9.9 7.8.6 11 0 2.6 1.3 10.7-1 12.6.1.1-.1 2.2.1 2.2-.1.7-.4 1.3-.6 1.9 0l3.5-.1c.2-.7 1.3-.7 1.8-.4.6.5 1.9.5 2.5 0 .6.5 3.3.4 3.7-.3 12.3.8 30.1 0 42.7-.7l.4.3c0-.1 2.1.1 2.1-.2 3.6.5.5-4 1.9-5.7Zm-226.3-16c-.3.9-1.5.3-1.3-.6.5-.7 1.6-.2 1.3.6Zm25.9 18.7c-1.1.3-2 .1-2-.7.9-.9 2.4-1 2 .7Zm8 1c-.1.1-.2.4-.5.3-1-.5 1.1-2 .5-.3Zm.9-11.2c-.1-.3-.5-.8-.1-.9.9-.2.4.4.1.9Zm5.5.7c-.4.3-.5-1 .1-.9.2.5.1.7-.1.9Zm11.2 8.4c-.2.1-.6.7-.8.5 1-1-1-1.4-.8-2.7.6-.3 1.5.6 1.7 1-.7.2 0 .8-.1 1.2Zm10-3.9c-.9.3 0-1.3 0-.6v.6Zm6.5 8.2c-.3-.4-.9.2-1.1.2-.5-1.1-.9-.8 0-1.3-.1-1.2 1-.6.7.2.7-.1.8.3.4.9Zm3.1-10.9c-.3-.2-.9-.3-1.4-.2-.3-1.5 1.6-1.2 1.4.2Zm5.8-4c-2.6.1-1-2.1.3-1.7.5.4 0 1.4-.3 1.7Zm6.2 13.6c-1.3.4-1.6.5-.8-.9.5-.2 1.3.7.8.9Zm12.8-20.5c-.4-.3 0-1 .6-.9 0 .4-.1.9-.6.9Zm4.6 13c-.4.4-.8-.2-.8-.6-.8-2.7 1.5-1.3.8.6Zm-.1-10.3c.2-1.8.8-3.1 3.2-3.5-.5.9-1.5 2-3.2 3.5Zm4.8 11.3c-.3-.1-.8-.9-.3-.9.8-.2.9.5.3.9Zm1.9-10.3h-.9c.2.4 2.1 2.5 1 2.8-2.9-1.2-1.9-5.7.4-3.1-.3-2.9 2.5.7-.5.3Zm5.1 5.5c-.4 0-1.4-.6-1-1.6.3.3 1.9.4 1 1.6Zm3.6 11.2c-1.3 1.6-2.3-2.2-.9-1.4.6-.3.9 1.3.9 1.4Zm-.8-18.3c-.3-.7.2-1.3.9-.9-.1.3-.6.7-.9.9Zm16.6 13.9c-1.9.4 0-3.4 0-1.4v1.4Zm-4.9 2.3c-.7-.1-1.5-.3-2-.4 1-1 2.3-1.2 2 .4Zm4.4-12c-.2.6-.5 1.7-1.2 1.5 0-1.3 2.3-4.3 1.2-1.5Zm1 4.6c-1.4-1.1.2-1.6 2.1-.3.7 1.2-1.6.3-2.1.3Zm9.9.2c-.4.1-1.1.3-1.3-.2.3-.3-.3-1.2-.5-.7-.6-1.5 1-2.9.9-.5-.1.8.6 1.1.9 1.4Zm5 7.2c-.5-.3.9-.4.9-.9 1.3.6-.3 1.1-.9.9Zm9.1-17.1s0 .1 0 0c-.1 0 0 0 0 0Zm15.7-1c-.2.2-.5.4-.7.6-.9-1.2 2.9-2.2.7-.6Zm52 6.7h.2c-.1 0-.3.1-.2 0Zm-.6 3.1c-.4 0 .6-1.5.9-1.4.9.1-.3 1.3-.9 1.4Z"/>
  <path fill="#fff" fill-rule="nonzero" d="M157.4 151.4c-1-.5-.5-1.7 0-2.4.1-1.9-.4-3.9 0-5.8-1.3-3.5 1.4-8.6-.7-11.9 1.8-2.4-.3-6 .2-8.6.4-1 .9-4.1 0-5 .6-.2.4-3.3.3-3.8-.4-2.2.6-5.2-.4-7.3 1.1-2.2.1-5.3.4-7.7-.7-.7-5.1-.9-5.8-.1-.6-.6-1.9-.6-2.5 0-.2-.7-3.2-.4-3.7-.5-1.6 1.3-3.8-1-5 .6-8.3-2.2-4.6.9-5.8 5.6.2 1.5-.4 3.4.4 4.7-.5 1.1-1.1 3.7.7 3.1-1.3.6-1 2.3-1.1 3.3.1.1-.2 3.6.1 3.6.1.4.4 1.2-.1 1.4-.2 1.8 1.1 3.3 0 4.9 3 5.4-6.5 2-8.2 3.5-3.1-1-11.9-.3-14.6.1-1.9-1.6-7.7.9-8.8-1.3 1.1 0 .4-5.6.6-6.2v-3.2c-.6-.3-.7-1.1-.7-1.7 1-.7.9-3 .1-3.8 1.2-3 .5-7.7.4-11.2.6-1.4.3-4.7-1.8-2.7-3.8-1.5-11.8-.6-16.2-.3-1.2.2-4-1.4-4.5.5.9 3.9-.9 8.9.6 12.4-1.4 3.7.3 9.6-.6 12.7v2.5c1.3 1.8-1.2 5.3.5 6.8-1.1.6-.2 3.9-.5 5v4.6c.7.5.8 1.9.6 2.6-1.1 6.2-.7 13.6-.2 19.8-.7 3.8-.4 8.4-.4 12.5 1.4 1 3.1.1 4.5.2 1.1-.3 2.5.7 3.5 0-.7-.5-.3-.9-.7-1.3-1.3.7.8-2.1 1.5-1.8-1.9 1.4.8 1 .1 1.9.5.8.1 1.1-.6 1.2 2.9 1.4 7-.7 9.8.3 2.4.3 4.9.8 4.6-2.4v-3.9c-.4-.6-1.6-1.1-1-2 .4.6 1.3.2.9 1.2.3-1.8.3-5.1-.1-7.1.4 0 .2-3.2.2-3.3-1.3-1.7 1.3-7.2-.5-9.1.7-.8.8-2.8.1-3.5.2 0 .5.1.4-.2 0-1.1 1.8-.9 2.3-.8h1.8c.4-.8.8-.4 1.3 0 3.7-.4 9.6.6 12.6-.5.1.6 1.8.6 2.1.4-.6-.8.7-.9.5-.2.1 0 1.1.2 1.1.3.6 0 7.2.3 7.3-.6.5.8 2 .2 2.1 1.4.3 3.7-.3 7.9.4 11.1-.7.1-.7 6.3.2 6.3-.8 2.4-.9 7.4 0 9.8-1.1.6-.7 2.6.2 3.3 1 .3 2.5-1 3 .1h1.6c1.1-1.3 4 1.1 5.4-.4 1.1.4 15.3 1.7 11.4-1.7 1.1-3.6.9-9.9 0-13.5.6-3.7.7-8.1.7-11.9Zm-73.9 12.5c-.3-.3.3-.7.5-.6.1.2 0 .6-.5.6Zm1.1-48.7c-.5.7-.6 0-.5-.5-1.5-1.3 3.3-1 .5.5Zm1.8 48.5c-.4 0-.5.2-.6.3-2.4-2.3 2.7-2.7.6-.3Zm1 1.5c-.3.3-.5-.1-.7-.3.4.1.8.1 1-.3.4.1-.2.4-.3.6Zm5.1-9.7c-.1-.3.1-.2.3-.2-.1 0-.2.1-.3.2Zm3.1 6.7c-.4-.2-.7-1.2-.2-1.6.3.7.5.6 1 0 1.6-.6-.7 1.7-.8 1.6Zm6.6-35.8c0 .1-.1.1-.1 0h.1Zm-1.6-24.5c-.8 1.2-1.4-.5 0-.7-.2.4.1.4 0 .7Zm.4 25.6c-1-.4.5-1.4 1-1.1-.2.3-.7 1-1 1.1Zm1.6 47.5c.2 0 .5.1.7.1-.6 1.3-3.2-.6-.7-.1Zm8.8-37.3c-.1-.3-.5-.8-.1-.9.9-.2.5.4.1.9Zm35.5-19.5c.9-.2 0 1.3 0 .5v-.5Zm-.8 2.1c2.6-1.6 2.6 7.9.9 2.6.2-1.3-.8-1.5-1.5-2.4.2-.1.4-.2.6-.2Zm-1.6 13.8c.4 0 1.1.4.9.8-.7 1-2.6-.3-.9-.8Zm-2.2-28.5c.4-.4.9.6 0 .3v-.3Zm-1.1-4.1c.6 0 .7.3.7.5 0 1.3-2.3-.6-.7-.5Zm-.1 10c-.4-.6.4-.4.8-.3-.3.3-.6.4-.8.3Zm.1 15.2c0 .3 0 .8-.2.9-.2-.4-.5-1.2.2-.9Zm-3.1 15.5c.1.3.2.9-.3.8-.1-.3.1-.9.3-.8Zm-.6-22.7c.1-.2.1-.6.4-.5 0 .4-.7 1.5-.4.5Zm-1.4-6.5c.1.7-.4 1.5-.4.5-.4-.2.1-.4.4-.5ZM95 139.8c.3.3.1.8 0 1.3-.6-.2-.5-1 0-1.3Zm-.9-2.2c-.1.3-.3.7-.5.8-.3-.6-.1-1 .5-.8Zm32.2-6.2c.6-.1.5.5 0 .4v-.4Zm1.8 15.4c-.2.1-.6.7-.8.5 1-1-1-1.4-.8-2.7.6-.3 1.5.6 1.7 1-.7.2 0 .8-.1 1.2Zm-19.8-5.3c-.3 0-.5-.6-.4-.9.7-.2.5.5.4.9Zm21.5 3c-1.5.3-.1-1.8.2-.2 0 .2-.1.2-.2.2Zm-12.7-11.2c-.4-.1-1-.9-.4-1.3.7 0 1.2.9.4 1.3Zm14.3-2.5c0 .3-.4-.2-.6-.2.3-.2.6-.4.6.2Zm2.2 4c-1.2-.1 0-1.6-1-1.9 1-1 1.9 1.9 1 1.9Zm.9 11.9c-.4-.1-1-2.4.1-2.2.7.5.9 2-.1 2.2Zm.9 17.6c0 .3-.4-.2-.6-.2.3-.2.6-.4.6.2Zm-.4-42.2c.5-.3 2 .2 1.5.9-.3.4.5.7-.1.8-.4 1.2-.6-.5 0-.8-.4-.2-1.5-.4-1.4-.9Zm1.2 5.8c.4-.4.4.1.3.4-.1-.1-.4-.2-.5-.2.1 0 .2-.1.2-.2Zm-.2 11.7c.5-.6.8 1.3-.1.7 0-.3.1-.5.1-.7Zm.1 12.7c-.2-.7.6-1.1 1.1-.7.4.8-.7 1-1.1.7Zm1.2-34c-.1 0-.4-.1-.7-.3-.2-.4 1.1-.1.7.3Zm1.1 41.2c-.9 0-1.4-.8-.7-1.1.1.1.9.7.7 1.1Zm.8-42.2c-.4-.5-.3-.7.3-.6-.2-1.2.9-1 .7 0 .6-.1.7.3.3.9-.5-.6-1 .7-1.3-.3Zm.5 8.3c.6-.3.7 1 .4 1.3-.2-.3-.5-.8-.4-1.3Zm.8 11.1c-1.1 1.1-.5-1.5.1-1 .3.5.3.6-.1 1Zm.3 1.4c.4-.2.9.4 1.1.6-.7 1.2-1 .8-1.1-.6Zm.7 16.7c.1-.1.2-.3.3-.4.3.2-.1.4-.3.4Zm.7-31.1c-.6-.5-.4-1.6.7-1.6 1.5.2.3 1.9-.7 1.6Zm2.4 27.4c-.3-.4-.9.2-1.1.2-.5-1.1-.9-.8 0-1.3-.1-1.2 1-.6.7.2.7-.1.8.3.4.9Zm1.8 2.6c-.3 0-1-.1-1.2-.4.9-.6 1.5-.6 1.2.4Zm.5-14.2c-.1-.1-.3-.1-.5-.1-.2-.6.5-.5.5.1Zm.2-4.3c-1.6.3.9-1.6 1 .6-.4-.2-.6-.6-1-.6Zm.9 12.4c-.3-.4 0-1.1.5-1.1 0 .5.1.9-.5 1.1Zm-.1-45.6c.4-.4 1.4-1.6 1.9-1 .9 1.4-1.3 2.2-1.9 1Zm4.5 55.7c-2.2 1-.6-2.9-2.9-3.7 2.2-1.5 2.5 1.8 2.9 3.7Zm1.1-21.5c-2.6.1-1-2.1.3-1.7.5.4 0 1.4-.3 1.7Zm2.2-19.9c-1.3.4-1.6.5-.8-.9.5-.2 1.4.7.8.9Z"/>
  <path fill="#fff" fill-rule="nonzero" d="m233 168.7-.6-.4c.9-.4.5-3.3.6-3.9v-1.7c-.5-.4-.8-.6-.6-1.3-3.5.3-8.2-.9-11.3.5-6-1.2-12.6-.1-18.8-.6-3 1.1-6.7-.4-10 0-.5 1.3-1.4-.5-1.9-.9 1.7-3-.9-11.8 1.3-13.8.9-.4 4.2.6 4.9-.5.6 1.3 3.6-.1 4.2.5 4.5-2.2 30.1 4.3 25.5-4.5.3-1.1.7-4.6.2-5.9-.3-.8-.7-2.2.2-2.6.2-1.1-.1-3.1-.6-4-7.2.4-14.1-.6-20.9.5-1.9-1.4-5.5-.1-7.9-.6l-.7.5c-9.2-1.5-4.1 1.5-6.3-9.6.9-.3.5-3 .6-3.6-.2-1.6 4.6-.6 5.4-.8.3-.5.5-.3.9 0 1.1.3 1.9-.9 3-.6 1.5 1.2 4.9.3 6.8.6 3.5-.7 10.2.8 14-.3 1.4.6 5.9.3 7.2-.2 1 1.1 4.1.6 3.3-1.5-1.3-2.4 2.7-18.7-3.3-15.1-4-1.4-11.3 0-15.7-.6 0-.1-3.3.1-3.5 0-.3.5-1.1.6-1.6.6-3.7-1.3-12.1-.7-16 .1-1.3-1.4-4.2-.2-6.1-.6-2.1.3-5-.2-7 .2 1.4 1.7-.6 1-.3-.2-3.4.9-10.9-2.3-9.7 3.4.4.9-.2 3.4 0 4.5.7.3.1 1 0 1.4-.5 1.5 1.2 3.4 0 4.4-.2 10.5.7 20.9 0 30.8 1.1.6.5 1.9 0 2.8.4 2.5.2 5.1.6 7.6-.8.7-1 3.2 0 3.8-1.4 4-.3 9.3-.3 13.5-.1 1.2-.8 5.2.1 6.2-1.5 2.4 1.5.5 2.2 2h1.5c.4-.7.7-.4 1.1 0h4.7c.7-2.3 3.6 1.3 4.6-.7.6-.2 1.4.1 1.7.7 1.8-.5 5.2.8 6.9-.6.1 1.2 7 .7 7.4.4 1.5.9 4.6-.3 6.1-.4.5 1.1 3.1.8 3.8.1 6.7.7 15.3.5 22.3.4 3.6-.1 1.3-7.4 2-10Zm-16.1-30.9c1.2-.5.5 2.5 1.7 2.6-.4.1-1.1.3-1.3-.2.3-.3-.3-1.2-.5-.7-.2-.3-.2-1.3.1-1.7Zm-9.8 2.2c.1 0 .4.1.7.3.2.5-1.1.1-.7-.3Zm-.1-1.7c.1.2-.1.8-.4 1-.3-.1.3-.9.4-1Zm-5.5 7.4c.1 0 .2 0 .2.2-.2 0-.2 0-.2-.2Zm-4.7-6.1c.5-.8.3.2.4.5-.5 0-.4-.2-.4-.5Zm-.5-.9c.1-.5.5.4 0 0Zm-1 2.1c.5.7-.4.5-.8.3.3-.3.6-.4.8-.3Zm-1.7-1.4c.1 0 .2 0 .2.2-.3 0-.3-.1-.2-.2Zm-1.9 1.9c.6.2-.2.2-.4.2 0-.3.2-.2.4-.2Zm35.7-36.1c1 0-.9.7.2.2l-.2-.2Zm-4.7 5.6c.1 0 .2 0 .3.1-.3-.1-.2.2-.2.4-.1 0-.1-.2 0-.2-.4.1-.3-.2-.1-.3Zm-.6-5.2c.2.1-.1.4-.1.4-.3-.1-.1-.4.1-.4Zm-2.3 8.1c.6-.3 1-.8 1.3.1-.3.5-2.4.4-1.3-.1Zm-6.9-9.5c1.2-.5.5 2.5 1.7 2.6-.4.1-1.1.3-1.3-.2.3-.3-.3-1.2-.5-.7-.2-.3-.2-1.2.1-1.7Zm-2 6.9c.1-.1.4-.2.5 0 .1.6-.9.6-.5 0Zm-.2-5.6h.1c0 .1-.1.1-.1 0Zm-1.8-4.8c.1.1.2.3.3.5-.2.2-.2-.3-.3-.5Zm-.4 8.1c-.1 0-.1 0 0 0Zm-3.1-2.3-.1-.1.1.1Zm-.1 5.9c.3-.1.5 0 .6.2-.1 0-.8 0-.6-.2Zm-2.1-12c.1-.2.2-.2.3-.1.4 0-.5.8-.3.1Zm-.1 6c.1 0 .4.1.7.3.2.6-1.1.2-.7-.3Zm-.2-1.6c.1.2-.2.9-.4 1-.2-.1.4-.9.4-1Zm-1.8-6.1c.9-.4.4.5-.1.8-.1-.4 0-.7.1-.8Zm-.4 13.2c-.2 0-.1-.1-.2-.2l.2.2Zm-1.3-12.6s.1 0 .1.1c-.1.1-.1.2-.1.2-.2-.1-.1-.1 0-.3Zm-.2 14.3c.5.7-.4.5-.8.3.3-.3.6-.4.8-.3Zm-1.7-1.4c.1 0 .2 0 .2.2-.2 0-.3 0-.2-.2Zm-2.1 1.9c.3 0 .4 0 .4.2-.2 0-.9-.1-.4-.2Zm-.9-2.1s0 .1-.1.2c0-.1 0-.2-.1-.2.1-.1.2-.1.2 0Zm-1.7-5.9c.5-.8.3.2.4.5-.5 0-.4-.2-.4-.5Zm-.6 4.6c.1.2.2.2-.1.3.1-.1-.1-.3.1-.3Zm-19.9-2.5c-.4-.5-.2-1.5.4-1.7 1 .6.3 3.8-.4 1.7Zm1.3 58c-1.6.7-1.1-1 0 0 .1 0 0 0 0 0Zm3.5-23.9c-.4.4-.8-.2-.8-.6-.7-2.7 1.6-1.3.8.6Zm.8-32.5c-.3-.1-.8-.9-.3-.9.8-.2.8.5.3.9Zm7-3.5c0 .1 0 .1 0 0 0 .2-.2.2 0 0Zm-2-1.5c0 .1 0 .1 0 0 0 .1-.1.1 0 0Zm-1.4 37.6c1.5-.3.1 1.9-.2.2.1-.2.2-.2.2-.2Zm-.8 18.1c-1.5-.8 1-1 .3-1.9-1.6-3.3 4.8 2.1-.3 1.9Zm2-28.4h-.3c.1.2.8 1 .4 1.1-1.1-.5-.7-2.2.1-1.2-.1-1.1.9.3-.2.1Zm1.3-21.2c-.2.4-.7.5-.6 1.1-.7-.5.8-.9.6-1.5v.4Zm.2-6.9c-.2 0-.6-.2-.5-.6.2.1.9.1.5.6Zm1 60.4c-.3-.3-.7-1.1-.6-1.4.4.7 1.1.2.6 1.4Zm.7-56.1c-.6.6-1-.8-.4-.6.2 0 .3.6.4.6Zm2.2 3.7c.1 0 0 .1 0 0 0 .1 0 0 0 0Zm.1 25.5c-.2 0-.6-.2-.5-.6.2.1.9.2.5.6Zm.2-13.6c-.1.2-.1.4-.1.5-1.4-.3.5-1.8.1-.5Zm.8-25.2c0-.3.2-.2.3.1.1.6-.5.6-.3-.1Zm-.3 22.8c.8-.4.4.5 0 0Zm1 20.3c-.6.6-1-.8-.4-.6.3 0 .4.6.4.6Zm5.2 36.1c-.2.5-.4.5-1 .2-1.3-1 2.3-1.6 1-.2Zm.6-2.9c-.5.1-.5-.2 0-.2.2-.1.2.2 0 .2Zm1.9-1.9c0-.2 0-.2.2-.2 0 .1-.1.2-.2.2Zm1.8 1.7c-.3 0-.7-.1-.9-.2.5-.4 1.1-.5.9.2Zm0-4.4c-1.2 1.3-2.2-.1-1.4-1.2 1-.6 2.8-.1 1.4 1.2Zm1.2 1.9c-.1.2-.1.1-.3 0 0-.2.3-.3.3 0Zm2-8.2c-.1 0-.1-.8-.1-.9 1.2.1 1.1.4.1.9Zm2.4 7.2c-.8-.4-.3-1.3.4-1.3.6.4-.1 1.2-.4 1.3Zm3.2-5c-.5.4-1.2-.4-1.7-.4.1-.2.2-.4.2-.5.3.4 1.6.5 1.5.9Zm15.4-3.4c-.2-.4 0-.7.3-.7.5 0 .4.9-.3.7Z"/>
  <path fill="#fff" fill-rule="nonzero" d="M349.5 107.5c1 .1.9-9 0-9-2-.5-9.3 0-11.2-.2-.3.2-1.6 1.1-1.2.1-.4-.1-3.3-.4-3.6.2-1.8-.3-4.2-.5-6.1-.2-1.7.7-4.5-1.3-6 .4-4.3-1.7-12 0-16.1-.6-5.4.5-12.7-.5-18.2.4-2.3-1-4.6.9-6.9-.4-2.3.5-10.7-.8-13.8.6-.3-.9-2.1-.9-2.6-.2-1.9.4-4.6-1.4-6.1.1-4.2-1-4.9-1.3-4 3.7-.5 6.8-.1 13.8-.2 20.5 3.8 2 36.7-2.6 32.3 3.3.7 8.7-1.1 18.5.6 27.1-1 1-.8 3.7-.2 4.9-.6.5-.7 3.2-.1 3.6-1 1-.2 6.2.2 7.3-.7 2.4-1 8.8-.1 11-1.1 6.7-.2 16.1-.3 23-.1.5-.6 1.8.4 1.4 7 .6 15.3 1 22.2-.2 2.8 1.3 6.5.7 9.2.3-.2-2.3.7-5.9-.5-7.6 1-.5.7-2.8.2-3.6.7.2.4-6.1.3-6.2-.3-.9.3-3.2.1-4.3-.7-.4-.5-1.1-.4-1.7.3-3.9.8-9.7-.1-13.4.7-2.3.8-7.3.1-9.7.6-.4.6-2.1-.2-2.5 1.6-3.4-.6-7.5.3-10.9.2-2 0-4 .1-6.1-.5-1.4 1.1-6.1-.5-7.3.7-.6.8-1.7.3-2.4.5-.6.6-3.4-.3-3.7.4-.7.9-1.7 1.4-2.3.3.7 3.2.4 3.7.4 1.4-1 3.2.3 4.9-.2 3.9-.1 8.4.7 12.3-.2.5.7 3.2.5 3.8.1 6.3 1.1 8 .4 6.5-6.4-.1-1.4 1.2-7.2-.2-9.1Zm-93.3.6c-.4.1-1 .4-1.1-.2.6-.2.8-.1 1.1.2Zm0 8.6c-1.7.6-1.2-.6.1-.1l-.1.1Zm.8-1c-2.1.4-.1-2.6.3-.3 0 .3-.2.3-.3.3Zm11.1 5.2c-1.3 1.7-1.8-2.9-.3-2.5.6.5.7 1.8.3 2.5Zm1.4-8c-.1 1.8-2.6-1.5-.4-.7.3.1.6.4.4.7Zm6.8-10.8c-.8 0-1.6-.9-.6-1.4.6 0 .7 1.2.6 1.4Zm1.5 5.3c-2.1 1.5-1.1-.6 0 0Zm5.4 1.5c-.4-.1-.9-1.2-.5-1.3.1.5 1.8 1.5.5 1.3Zm4.3 19.7c-.2.2-.3.8-.8.9-.5-.4.4-1.3.8-.9Zm2.8 50.4c3.3-3.5-4.8-2.9-1.1-6.1 2.1 2.9 4.1 6.1 1.1 6.1Zm.7-63.1c-.7.3-1.5-1.1-.8-1.3 1.7-.6 2.1.2.8 1.3Zm.5 1.8c-.8-.7.1-.8.6-1.1-.1.3.1 1.2-.6 1.1Zm1.4 41.3c-.4 2-1.3-.4-.2-.4l-.2.2c.1.1.5-.1.4.2Zm10.5-20.4c.2-.3.3-.4.9-.4-.2.1-.8.4-.9.4Zm-2.3 42.6c.3.2 0 1-.4.9-.5-.3-.2-.8.4-.9Zm-1-75.2c.7-.9 1-1.3 2.7-1.2-.4.2-2.3 1.3-2.7 1.5v-.3Zm-4.6 43c-.4.9-1.2.5-1.6-.2.1-1.1 2.9-1.4 1.6.2Zm6.4-39.7c-6.4 2.6-.9-2.2 1.4-4.6 1.4 1.5.5 4.2-1.4 4.6Zm.7 92.5c-1.7 0-3.4-2.4-1.2-3.6 1.1-.1 1.4 3 1.2 3.6Zm-1-36.4c-.1 0 0 0 0 0Zm.7-15.7c.6-.5 1-.4.8.4-.2-.2-.6-.4-.8-.4Zm.9.5v.1c-.1 0-.2 0 0-.1Zm.5 19.3c-.1-.2-.7-.5-.6-.9.2.2.6.4 1 .6-.1 0-.2.1-.4.3Zm.9-30.4c-.1.6-1.8 1.3-1.8.6.7-.2 2-2.5 1.8-.6Zm12.5 27.9c-1.4-.2.2-1 0 0 0 .1 0 .1 0 0Zm-.7-15.8c0-.1 0-.2.2-.2 0 .2-.1.3-.2.2Zm.4-12.6c-.4.2-1.4.3-1.2-.3.4.1 1.1 0 1.4.2-.1.1-.1.1-.2.1Zm-2.3-11.1c.3.1.7-.1 1.1.1l-.2-.4c.5-.1 1.1.4.3.5.3 1.9-1.2.9-1.5-.2h.3Zm-5.1-20.7c.3-.7 1-1.3 1-.2-.2.6-2 1.5-1 .2Zm-1.7 5.6c.3.2.9.5 1 .7-.1.7-1.2-.4-1-.7Zm-1.3 52.2c-1.5-.1-2.4-1.4-1.2-2.1 1.8-.1 2.4 1.7 1.2 2.1Zm3.2-5.5c-.6.7-.8 1.4-1.7 1-3.1-3.2 5-5.4 1.7-1Zm.8-33.3c-.1-.6.6-.9.7-.6-.2.3-.3 1.2-.7.6Zm1.1 44.6c-.1.4-.6.9-.7.1-.3-.9 1-1.6.7-.1Zm2.4 6.6c-.3 0-.5.3-.7.4-.4-.8-.2-.9.6-1.1l-.1.2.1-.1c.1.3.1.5.1.6Zm0-38.9c-.5.3-1.3-1.6-1.2-1.6 1-.6 1.4.9 1.2 1.6Zm.4 37.5c-.3-2.2.6-2.1.6 0-.2-.1-.4-.1-.6 0Zm.7-13.3c.6-.6 1 .7.4.7-.4 0-.4-.8-.4-.7Zm1 20.4c-.7.7-1 0-1-.6.2-.4.8.3 1 .6Zm1.4-5.5c-.1.7-.6.5-1 .4-.2-.9.5-.7 1-.4Zm1.3-62.8c-.1-.1-.3-.1-.4-.2.1-.2.6-.1.4.2Zm6.7 5.7c-.6-.1-1.1-.6-.9-1.2 1.2-1.1 3 1.1.9 1.2Zm1-16.1c-.6.1-1.4-.8-.8-1 .5.2 1.6.4.8 1Zm1.3 8.1c-.1 0-.1 0-.2-.1 1.2-.6 1.1.6.2.1Zm2.3-10.3c-.3-.1-.4-.5 0-.5v.5Zm1.6 5.3c-1.1-1.4 3-.6.6.5 0-.4-.1-.5-.6-.5Zm1.8 10.6c-.8.1-1.3-.3-1.3-.8.8-.3 1.5.1 1.3.8Zm6.2-17.1c0-.1 0 0 0 0Zm.6.3c-1.1-1.3 1.5-2.2 2.4-1.4-.9.8-1.9 1.6-2.4 1.4Z"/>
  <path fill="#fff" fill-rule="nonzero" d="M447.7 203.4c-.4-6 .3-11.4-.6-17.1.6-2.4-.9-6.3-2.5-5-13.5-1.7-28.6.2-42.4-.6-.4 1.1-1.6.4-2.3 0-9.4.4-7.8.2-7.3-8.7.4-11.5-2.6-7.6 6.8-9.6 0 1.1 4 .5 4.6.7.4-.8 1.2 0 1.7 0 1.4-1.4 3.6 1.1 4.9-.6 2.2.2 3.9.6 6-.1 1.6 2.1 6.6-.8 7.9.7 2.6-.2 6.7.4 9.3-.3 3.2.5 6.5 1 5.6-3.5-.4-1.3.3-4.7-.5-6.8 1-.2.8-7.4-.1-7.6 1.4-2.2.9-7.4-2.5-5.2-1.7-.8-4.4-.5-6.1-.1-.4-.5-2.2-.5-2.5.1-.3-.7-3.4-.6-3.7 0-.8-.6-5.4-.6-6.2 0-3.5 0-7.4-.9-11 0-3.8-1.5-11.3 1.1-14.2-1 1.1-6.2-4-17.9 6-15.5 10.6-.1 26.4-.2 37.2 0 9.3-.8 10.5 3.5 10-8.1 0-.6.1-2-.6-2.4.7-1.2 1-3.8 0-4.9-.1-1.6 2.5-10.8-1.4-8.9-1.3-1.2-3.1 1.2-4.2-.3-1.2-.1-3.4.2-4.5 0-.6.5-1.2.7-1.6 0-4 .7-8-.6-11.8.5-3.6-1.3-11.1-.3-14.7 0-2.7-.8-8.3-1-11.1 0-2.5-1.3-6.3.1-9-.5-2.5.5-8.5-.9-10.7.6-.4-.7-1.9-.8-2.5-.3-2.1-.8-8.1-.1-10.5-.3-.5.7-1.7.9-2.3.3.6 1.8-.5 4.2-.2 6.2 1.5 1.5-.3 4.6 0 6.6.2-.4.5-.4.7-.6.6 0 .2-1.5.7-1.2.8 1.5-1.5 1.6-1 3.1-.1 0-.3-.1-.4-.1-.3 1.5.4 3.4.7 4.8-1.4 1-1 11.2-.1 12.4-.8.6-.9 1.7-.2 2.4-1.1 2.8-.5 6.9.2 9.8-1 2.1-.1 4.5-.6 6.3 2 1 2.3 2.7 0 2 .7 1.9-.9 5 .6 6.4-1.1 1.3-.6 4.4-.2 6.1-.6.1-.4 2.4 0 2.5-.2 10.4-.7 23.4.2 34.3-.9.1-.4 4.4-.5 4.9 0 1.3 3.6.5 4.4.7 2.9-.1 6.4-.2 9.1 0 .5-1 1.6-.2 2.2 0 1.8.3 6.4-.6 8 0 2.1-.1 4.2.2 6.2-.5 1.1 1.1 3.6.4 5-.1 10.9 1.9 25.1-.4 34.6.6 1.4 0 3.1 0 4.5-.6.7.7 3.3.7 4.1.4 1.2-.5 4.3.7 5.7-.1 0 .4 2.1.2 2.3.2.5-.4.2-1.3.8-2Zm-13.5-44.7c1.2-.1.3 2-.6 1.8-.4-.7-.1-2 .6-1.8Zm-14.2 1c.5-1 2.9 1.1 1 .8 0 2.4-1.6.1-1-.8Zm-7.6-9h.3c-.1.1-.2.1-.3.2 0 0-.1-.2 0-.2Zm-2.2 4.2c.1.1.2.1.2.2-.1 0-.2 0-.2-.2Zm-1.1 3.3c.7 0 .7.8.9 1.1-1.1.7-2.2-.3-.9-1.1Zm-13.9-7.5c-.1.8-.6.5-.8.1.1-.1.5-.1.8-.1Zm48.2-35.9c.7-.1.5.6.5 1.1.2-.2 1.3-1 1.4-.4-.5 1.4-2.9 1.1-1.8-.1-.4.2-.6-.5-.1-.6Zm-3.4-14.1.6-.3-.3-.3c2.2-.6-.2 1.9-.3.6Zm-.8 18c.3 0 .2.2-.1.1 0-.1 0-.1.1-.1Zm-5.9-10.5c.2.1.6.1.8.2-.6 1.9-2.6-.9-.8-.2Zm-1.2 2c.4 0 .8.1.8.4-.3 0-.7-.1-.6.4v-.1c-.9.3-1-.7-.2-.7Zm-1.1-9.4c.5.3 0 1-.4 1.1-.6-.4-.2-1.2.4-1.1Zm-1 6.1c.7-.3.4.5.1.7 0-.2-.2-.6-.1-.7Zm-14.9.3c1.8-.1-.4 2.5-.3 1.1.1-.6.1-.7.3-1.1Zm-3.3 3.5c.2.8-1.2 1.5-1.5.6.2-.7.8-1.3 1.5-.6Zm-1.6-10.2c.2.1.5.2.7.3-.3.2-.8.1-.7-.3Zm-9.2 7.6c.1-.1.3.2.5.4-.3.4-.5-.3-.5-.4Zm-.4-5.6c.2.2.4 1.2 0 1.1 0-.3-.2-.8 0-1.1Zm-.1 10.5c.7-.1 1.2.2 1.3.7-.4-.1-2.1 0-1.3-.7Zm-1.4-.7c.1-.1.4-.2.5-.1 0 .3-.6.5-.5.1Zm-.1-4.9c-.5 0-.8-.2-.9-1 .2.2.5.5.9 1Zm-1.1 8.4c.6 0 1.2.1 1.2.8-.3.7-1.4-.1-1.2-.8Zm-1.7 4.4c0-.4.4-.2.5.1 0-.1-.6 0-.5-.1Zm-.9-10.8c1.5-1.1 2.4-.9 1.9 1.1-.6-.4-1.4-.9-1.9-1.1Zm-31.6-7.4c.1.1.3.3.4.3-.3.5-1.1.1-.4-.3Zm1.1 98.3s-.1-.1 0 0c0-.1 0-.1 0 0Zm.6-40.1c-.9 1.6-3.2 2.3-3.1-.4.9.4 3-.7 3.1.4Zm.1-.1c.4-.6-.5-1-.1-1.4.1 0 .5.7.6.4.3.4-.2.6-.5 1Zm16.9-48.1c.6.4.3 1.2-.6 1.5-.6 0 .5-.8.6-1.5Zm-.8 8.4h-.8c-.2-.8.5-.6.8 0Zm-1-8.3c.7-.3 1 .6.3 1.1.1-.4-.1-.8-.3-1.1Zm-3.3 31c-.8 1.3-.3-1.3-.3-1.8.7.4.8 1.2.3 1.8Zm-.2-33.1c0 .2.2.4.3.6-.7.6-1.2-.8-.3-.6Zm-4.8 31.7c-.3-1 1.1-.5 1.1.1-.2.4-.9 1-1.6.5.2-.2.5-.4.5-.6Zm-2.8-29.4c.5-.3.1.7-.1.9 0-.2 0-.7.1-.9Zm-.7 14.1-.1.1.1-.1Zm-1.1 29c-.1 0 0-.7 0-.7.9.1.9.3 0 .7Zm1.8 15.7c-.3.8-1.2.2-1.1-.5.4-.6 1.4-.3 1.1.5Zm.7-43.7c-.5.2-1.8 0-1.4-.8l.2.2c-.3-1 2 .2 1.2.6Zm0-19.5c-.1-1.5 1.2-2 1.6-1-.1 1.3-1.1 1.9-1.6 1Zm1.7 49.4c-.2-.1-.5-.2-.7-.3.1-.1.1-.3.2-.4.6.3 2 1.2.5.7Zm.6 1.3h.6v.3c-.3-.2-.6.1-.6-.3Zm2.3 16.7c-.5.2-.4-1-.1-.7 0 .2.2.6.1.7Zm-.2-4.3c-.4 1-3.3.8-1.1-.3l-.5-.5c.7-.5 2.6.3 1.6.8Zm1.8 11.3c-.2.2-.5.4-.7.6-.9-1.2 2.9-2.2.7-.6Zm.8-33.2c-.4-.2-.6-.7-.6-1.2.9-.6 2.4 1.4.6 1.2Zm2.9 9.1c-.5-.3-.6.2-.2.5-.7.7-2.4-1.3-2.3-2.1 1.4 2 1-.6 2.2-.1 1.3-1 1.5 1.6.3 1.7Zm2.9 1.3c-.6-.2-.3.6-.4.9-2.2-.1.7-4 .4-.9Zm1.1-49.2c0-.1-.1-.1-.1-.2.4-.2.6 1 .1.2Zm.1-7c-.9.4-2.4-.9-.4-1 .5.1 1.6.9.4 1Zm4 28.8c-.3.5-.4 1-1 .3 1.1-1.2 2.4-.3 1-.3Zm.5 5.3v-.3c-.9-.3.3-.3.5-.2 0 .1-.2.3-.5.5Zm1.9 25.6c-1.1.8-1.5-.7-.7-1.3.5.4 1.4.6.7 1.3Zm1.3-50.6c-.3-1 .3-.6.7 0h-.7Zm.7-13c.5 1.1.6 1-.6 1.5-.4-1-.4-1.7.6-1.5Zm-1.3 54.8c.3.4.5.6 1.3.4v.6c-.7-.3-1.3-.6-1.3-1Zm5.7 42.3c.2-.5.4-1.1.6-1.3-.1.7 0 .6-.6 1.3Zm25.3 8c-.2.1-.2-.1-.2-.2.1 0 .3.2.2.2Zm4-16.7c-.6 0-.9-.3-1-.9.3.3 1.2.2 1 .9Zm1.6 4.3c-.4 0 .6-1.5.9-1.4.8.1-.4 1.3-.9 1.4Zm3.7 2.1c-.1-.4.3-.4.6-.4-.2.2-.5.4-.6.4Zm13.4-10.8c-.1-.4.7-1.3.6-.4 0 .6-.9.8-.6.4Zm-8.6 7.6c-1.4-.1-1.1-.6 0-.8v.8Zm7.8 9.9c-.8.1-1.3.5-1-.2.1-.1 1.2-.1 1 .2Zm.9-12.3c-.6.1-1.4-.8-.8-1 .5.2 1.6.4.8 1Zm-.3 7.8c-.2-.1-.5-.2-.8-.3 4-3.2 3.9 2.3.8.3Z"/>
  <path fill="#fff" fill-rule="nonzero" d="M561.6 185.1c-1.8-1.6-3.4-3.6-5.6-4.8.3-.5-1.4-2-1.8-1.9-2.8-3.4-7-6.4-10.4-9.1-1.9 2-5.2 3.6-6.3 6.3-4 2.1-9.1 4-13.5 5.7-3.5-.7-8.3 0-12-.4-3.5-1.1-7.4-3.5-10.7-4.7-.3-2.1-3.8-2.6-4-4.4-3.2-3.2-4-7.5-6.1-11.1-1.8-16.7.9-26.3 15-36.6.7-.3 1.4 1.2 1.8.2 1.3.1 3-1.8 4-.9 11.8-3.4 23.9 3 31.9 11.4.1-1 .9-1.7 1.9-1.6.3-.2 3.9-3.7 3.9-3.5.3-.4 1.9-1.3 1.4-2 2.8-1.6 5.6-3.8 7.4-6.6 2.3-1.1 8-5.2 3-6.1-4-7.4-21.5-17.1-29.8-16.7-1.3-2.1-4.8-.4-6.3-1.6-1.1-.1-2.3-.5-3.2.4-1.2-1.5-14.5-.7-15.8.7-2.2-1-4.9.7-7.2.9.2.9-.5 1-.3.1-.4 0-.6.4-.8.7-28.8 5.9-45.7 39.1-38.1 67.1.1-.4.7-1.2 1.2-.6.5.4 1-.8 1.1.1 1.8.5-.7 1-1 .1-1.3 1.9-.5 4.6 1.3 6.1-.7 1.2.3 2.8 1.4 3.4.3 2.5 2 4.9 3.2 7.1 2.3.1 1.1 4.2 3.8 4.2 16.3 24.1 61 27.1 83.8 9.4.6-2.5 3.9-2.7 5.3-4.7 1.6-2.7 6.2-4.4 1.5-6.6Zm-19.5-80.2s.1 0 0 0Zm-3.2 17.4c1-1.1 1.3-1.4 2.9-1.2-1.2 0-3 2.8-3.4 1 .2.1.3.2.5.2Zm-4 4.5c0 .1-.1.1-.1.2-.3-.6-.4-1.6.6-.7-.3.1-.4.3-.5.5Zm-1.2-3.8.3.1c0-.7-.3-1.5.4-2.1-.6 1.3 3.2 1.6 1 2.2-.6.2-1.2-.3-1.6.3-1.3.9-1.5-1-.1-.5Zm-4.6-18c.1-.5.7-1.1 1.1-1.3.3.6.9-.1 1.2 0 .1.2.7.6.5.8-.8-1.2-2.3 1.9-2.8.5Zm-3.2-7.4c-.1-.4.4-.3.1-.5 3.3.2-2.5 4.1-.1.5Zm-4.5 22.3c.3 0 .6.2.9.4-.6.4-1.1.4-.9-.4Zm-.6-16.2v.6-.6Zm-.2.6c-.3.8-1.6.7-1.7 0h1.7Zm-7.3 0c.5.4-.5 2.4-.5 3.3-1.6-.5-1.3-4.4.5-3.3Zm-10.5 7.7c.9-.2 1.9.5 1 1.4-1 .7-1.7-.6-1-1.4Zm-1.2-.1c.4.1.4.6.1.9-.9-.4-1.2-1.3-.1-.9Zm-1.1 8c.4-.1.4.6 0 .6-.1-.1-.4-.6 0-.6Zm-2.1 2.5c.9.4 1.4 1.2.4 2-.8-.4-1.3-1.4-.4-2Zm-36.2 36c-.6.8-2.1.5-2.2-.9.3-2 2.6-.4 2.2.9Zm29.1 9.2c2.8 2-4.8 2-1.5.1.5-.3 1.1-.4 1.5-.1Zm-.1-62.1c.3.4-1 .5-.9-.1.5-.2.6-.1.9.1Zm-1.2 3.2c.2.5-.1.4-.2 0h.2Zm-.7 8.6c2 .1 2.6 3.6 0 2.4-.7-.5-.6-1.8 0-2.4Zm-1.2 42.9c.9-1.2 4.4-.8 2.1.6-1.3-.5-1.2 0-1.9.6-.2-.4-.6-.9-.2-1.2Zm.7 13.9c.3 0 .3.2.3.3.4 2.1-2.5.1-.3-.3Zm-3.5-65.2c1-2.1.7.2.2 1.1-.2-.1-.5-.2-.7-.3.3-.1.4-.4.5-.8Zm.5 39.4c-.8-.2-.2-.9 0-1.4.2.5.4 1.1 0 1.4Zm-3.1-34.8c0-.1.8.6.6 1.1-1 .3-1-.8-.6-1.1Zm-3.9-.2c.3-.3 1.4-.3 2.3.3-.4 1.5-3 1.5-2.3-.3Zm-1.6 23.9c.5-.7 2.6-.6 2.8.3-.2.1-1-.2-.7.3.7 2-.6 2-1.5.8-1.9 1.6-2.5-.8-.6-1.4Zm-1.5-23.3c1 .3.7 1.2 0 1.9-.5-.4-.8-1.7 0-1.9Zm-10.2 31.6c1.2-1.9 2.7 2.3.9 1.2-.7-.2-1-.5-.9-1.2Zm1.8 14.5c-.7.1-1.1.7-1.5 0 .1-.7 1.4-.3 1.5 0Zm-2.3.8c.6.1.6-.1.7-.6-.1.5.3.7.6.8-.3.7-3.1 1.1-1.3-.2Zm.5 7.6c-.3-.1-.6-.1-.9 0-.2-.6 1.1-1 .9 0Zm1.7-2c-1.2-.4-1.9-1.1 0-1.3-.1-.8.6-.9 1.3-.3-.7.3.3 1.2.3 1.4-.6.1-1.7 1.4-1.6.2Zm1 12.7c-.6-.7.6-.6.9-.3-.5.3-.7.3-.9.3Zm2.6-33.1c-.7.1-1.3-.9-.5-1.1.7 0 1.1.8.5 1.1Zm2.3 11.4c0 .6-.6.6-.9 1.1-1.7-2.6 1-3.1 3.5-3.7.4-1.3 1.5-.6 1.5.3.3 2.6-3.4.5-4.1 2.3Zm1.3 13.2-.4.4c-1.8-3 6.6-2 .4-.4Zm1.7 8.2c-.3-.1 0-.6-.1-.9 1.3.3 1.4 1.3.1.9Zm1.1-25.9c-1.8-.1-.5-2.3.8-2.1-.9.6-.9 1.3-.8 2.1Zm.4 7.9c-.4-1.1 1.8-.6 1.8.5-.7.4-1.2.2-1.8-.5Zm2.5 16.6c-.4.1-1-.1-1.2-.5.3-.6 2.6 0 1.2.5Zm.5-59.8c-.3-.1-.1-.2-.3-.7.6.1.8.4.3.7Zm.1 41.9.9-.9c2.5 1.2-.9 2.4-.9.9Zm3 6.8c-.1.1-.1.2-.1.4-2.3 0-.2-1.8.1-.4Zm-1.5-31.6c.3-.2.5-.5.4-.9 2.1-.2.4 1-.4.9Zm3.2 42.7c0 .1-.1.1-.1.2-1.2-1.1 1.1-1.4.1-.2Zm-.3-3.5c-1-.3-.3-1.7.7-1.5.8.4.3 1.5-.7 1.5Zm1.7 9.4c-.5.1-.7-.2-.5-.5.3-.3.6 0 .5.5Zm3 15.2c-.4.6-1.9.6-2.2-.2.5-.6 2.2-.7 2.2.2Zm-.3-5.5c-1.3-.7-.1-2.2.6-2 .9.6-.1 2-.6 2Zm2.1 2.3c-.3.1-.7.2-.9-.1.2-.4 1.7-.2.9.1Zm.6-4.9c-.3 0-.1-.7-.2-.8.9-.2 1.1.7.2.8Zm1-8.3c0 .4-.9.5-1 .5-.9-.7.9-1.5 1-.5Zm2.2-4.9c-.3 0-.6.2-.8.4-.9-1.3.6-1.8.9-.4h-.1Zm3 2.7c-.5 2-1.5-.5.1-.1 0 0 0 .1-.1.1Zm1.1 25.1c-.2-.8.5-.6.8 0h-.8Zm1.9-7.6c-1.1 1.3-1 .5-.2-.8-.1 0 .6.6.2.8Zm1.5-9.5c-.5.2-1.2 0-1.5-.5.1-1.1 3.3 0 1.5.5Zm8.1-2.5c-.5.4-.5-1.1-.7-1.2 1.2-.7 2.1 1 .7 1.2Zm6.7 6.6c-.5 0-.8-.2-.9-1 .2.2.5.5.9 1Zm-2.8 12.8c0-.4.4-.3.5 0h-.5Zm2.2-3.4c-.3 0-.4-.6-.5-.8.5-.9 2.3.9.5.8Zm3.5-17.7c-.5.8-1.3-.6-1.2-1.3.7-.2 1.8.6 1.2 1.3Zm1.2.8c-.3 0-.4-.1-.5-.1.3-.3.5-.3.5.1Zm21.5-6.5s.1.1.2.5h-.5c.1-.4.2-.5.3-.5Zm.3 1.6c-1.3.5-.5-.6-.2-1.1.1.4.9.9.2 1.1Zm1.8-7.2c-.5.1-.8-1-.5-1.2.7 0 1.7 1 .5 1.2Zm2.3 1.7c-.3-.6-1.3-.7-1.3-1.5.8-.4 2.3.3 1.3 1.5Zm0 18.2c-.5.1-.3-.4-.3-.6-2.4.8-1.2-3.3-.6-.8 1.5-.8 3.3 1.5.9 1.4Zm3.2-12.9c-.7.5-1.7.1-2-.6.8 0 1.2-1 1.3.4.3 0 .8-.1.7.2Zm0-2.6c-.3 0-.7-.2-.9-.7-.2-1.4 2.4.5.9.7Zm1.8 16.4c-2 1.8-3.6-2.7.6-.7-.3.2-.5.5-.6.7Zm.6-11.8c-.3-.1-.6-.1-.9 0-.2-.5 1.2-.8.9 0Z"/>
  <path fill="#fff" fill-rule="nonzero" d="M174.2 198.3c-.7 0-1.9-.1-2.4.6-1.7-1.3-4.9 0-7.1-.6-2.7-.3-7 .6-9.1 0-2.4 0-6.4-.6-5.8 3.1-.9.8-2.2 6-2.2 7.1-1.9 2.7-2.4 8.9-4.2 11.6l-1.4 4.2c.5.4.3 1.2 0 1.7-2 2.3-3.2 7.5-3.3 10.5-1.8.4-1.2 3.4-1.8 4.6-.7 1.2-2.2 3.5-1.4 4.7-1.3.3-1.4 3.7-2 4.6l-1.4 4.4c.9 2.1-1.5 4-2 6.1-2.6 3.2-2.7-5-4-5.8-1.6-2.9-6.3-25.8-8.8-23.7-.6-1.4 2.3-.7.1-3 .6-1.1-.9-5.4-2-5.8-.2-.1.5-1.3.2-1.5-1.5-1.6-1.2-6-2.8-8 .1-.8-.8-4.5-1.8-4.6.5-2.8-2-6.8-2.6-9.8-4.1-.1-9.7-1.1-13.4.1-.4-.8-4.7-.9-5.1.1-.4-1-4.2-.5-5-.6-2 .3-.7 3.3-2.1 4.1-2.8 10.6-8.4 22.3-10.3 32.7-1.5 2-3.2 6.6-3 9.1-1.6.4-1.3 3.6-1.8 4.4-.7.1.3 1.8-.9 1.7-.8 1.1.4 2.9-1.1 3.4-.7 1.2-1.9 9.7-4.2 6.6-2.1-7.8-6-16.7-7.7-24.2-1.4-4.7-3.4-8.9-4.3-13.7-2.2-3.2-1.5-9-4.4-11.7.6-1.5-.6-4.7-1.6-5.9-1.3-4.8-.9-8-7.4-6.2-1.7-.6-4.6-.4-6.2.1-1-1-3.2-.2-4.6-.5-1 .6-3.1-.6-4.2.3-.6-.5-2.1-.4-2.5.3-4.4-3-3.6 3.5-1.4 5.2-1 1 .6 2.1.3 2.9 1.3 2.9 1.5 6.8 3.5 8.8-.3 1.1 0 3 1.2 3.5-.6 2.4 1.5 5.3 1.9 7.9.7.2.6.4.3 1 4.1 10.9 7.1 23.1 11.4 34.3-.3.6.3 2.2 1.1 2.2-.9.5.8 4.4 1.1 4.9 1.2 3.5 2.2 8 4 11.4-.5.4 4.4 16.6 5.6 16 5.9-.8 12.3 1.1 18-.7.8 1.1 2.7.8 3.7 0 2.2.5 6 1.5 6.3-1.7-1.4-1.9 2.7-3.5 1.2-5.6 2.1-1.2 4.1-12 5.4-14.3 1.5-6.9 5.9-14.6 6.7-21.9 3.3-4.2 3-11.8 6.4-16.2 1.9 1.2 2.2 5.2 3.1 7.5l.6.5c-.6.3.7 3.2.7 3.5 3.4 9.5 6.3 21.1 10.1 30.3-.5 2.6 3.8 10.6 3.9 12.9-.3.7.6 3.1 1.2 3.5-.7 3.9 9.5 1.4 12 1.9.6-.3 1.2-.7 1.6.2 1.4.2 4.6-.5 5.7 0 1.4-1.4 3.5 1.1 4.8-.6 1.1.4 2.4-.4 3.3.6-.2-.6.2-1 .7-.8 1.1-2.1 2.8-5.5 2.5-8.1 1.7-1.1 3-7.2 3.4-9.2.6-.2 1.1-1.9.7-2.4.5-.5.8-1.5.8-2.2.7-.2 2-4.2 1.3-4.8 1.3-.2 1.8-3.6 1.7-4.7.5-.7 2.7-6 2.9-7.3-.6-.7-.1-1.3.5-1.7.2-.5 1.4-3.2.8-3.6 1-.1 1.4-2.7 1.2-3.5 1.6-1.3 1.4-4.5 2.4-6 .1-.4.8-1.8.3-2.2.7-.1 1.6-3 1.2-3.5 1.3-1.2 2.1-5.3 2-7 1.6-1.7 2.4-4.7 2.7-6.9 1-3.3 3.2-7.2 3.3-10.5.8-1.8 6.1-13.9 3.5-14.1ZM30 229.8c-1.1 1.5-1.3-1 .3-1 0 .2-.2.7-.3 1Zm6.5 20c.1-.6-.3-1.3-.5-1.8.8.4 1.5 1.2 1.9 1.9-.5-.1-1-.1-1.4-.1Zm-.5-27.1c-.3 1.4-1.7 1.5-2.5 2.2.5-.6 1.9-2.3 2.5-3.1.1.2.1.6 0 .9Zm.5 13.3c-.2.7-.5.1-.3-.3.2-.7.7-.3.3.3Zm2.7-22.5c1.1-.2 1.1 2.7-.1 1.8.2-.6-.2-1.4.1-1.8Zm4.7 26.4c-.5-4.6-.4-4.3 1.2-.3l-1.2.3Zm3.1 7.9c-.7.8-1.1-.5-.2-.6.3-.1.6.5.2.6Zm.2-18.7c-.6 1-.5-2.4.4 0h-.4Zm21.4 42.3-.2-.2c.1 4.5-3.5-.1-1.3-2-.7 2.6 1.5 1.1 1.5 2.2Zm1.3-18.2c-.2-.6-.6-1.1 0-1.1.5 0 .1 1 0 1.1Zm7.9-22c-.1 0-.4.2-.3.3-.6-.1-.2-.5 0-.9.3.1.8 0 .3.6Zm6.7 11.4c.5-.5 1.1.7 0 .4v-.4Zm-.3 6.1c.1-.1.6-.1 1.1.1-.3.7-1.4.8-1.1-.1ZM79.7 217c1.7-.2.7.9-.2 0h.2Zm-.2 13.1c.5.1.9.1 1.1-.4.7.7-.7 1.3-1.3.3.1.1.2.1.2.1Zm-3.9 29.3c.1-1.2.2-4.4 1.5-2.4.7 1.9-1.7 4.7-1.5 2.4Zm4.1 7.3c-.3 0-.5-.3-.3-.5.3.1.5.4.3.5Zm-.7-11.9c-.7.2-1.4-1.9-.2-1.4.1.4.3 1 .2 1.4Zm1.6-11.3c-.3.1-.3-1 .2-.8.9-.5.2.7-.2.8Zm1.8 22.2c-1 .3-1.8-1.4-.7-1.8.9.2 1.6 1 .7 1.8Zm-.7-15.7c0-.4.3-.9.6-1 .9.8-.1 2.7-.6 1Zm1.3-15.8c-.7.3-.4-.3 0-.4.3-.4.2.1 0 .4Zm-.2-8.1c-.1.1-.2.1-.2.1-1.1-1.5 1.9-.9.2-.1Zm2.2 27.8c-.5-.5.1-.7.5-.6.1.1-.3.4-.5.6Zm1.3 6.1c-.3-.1-.8-.3-1-.5.2 0 1 .1 1 .5Zm1-.5c-.3.3-.7-.1-.1-.6.5-.3.1.4.1.6Zm4.6-49.5c.7.3.4.6.1 1-.2-.2-.4-.7-.1-1Zm0 12.1c.1 1.1-1.3 0-.9-.6.3.3.6.5.9.6Zm.9 17.2c-3 .1-1.2-2.5.4-2.1.5.5-.1 1.7-.4 2.1Zm7.2-30.4c.5 0 .7 0 .9.3-.2 0-1.7.1-.9-.3Zm.9 2.2v2c-.9-.5-.7-1.4 0-2Zm4.2 38c-.1 1.8-2.6-1.5-.4-.7.2.1.5.4.4.7Zm-1.8-36.3c-.6-.1-1 .6-1.7.6.2 0 3.9-3 4-2.6-1.2 1.9-1.6 2-2.3 2ZM107 230c-.1-.2-.8-.7-.5-.9.7-.4 1 .6.5.9Zm1.7-10.3c-.4.6-1.9.6-2.2-.2.5-.6 2.2-.7 2.2.2Zm2.2-8.9c.9-.2 1.1.7.2.8-.4 0-.1-.6-.2-.8Zm-.5 5.7c-.2.2-.7.1-.9-.1.3-.4 1.9-.2.9.1Zm.3 20.7c.9-.8 1.2.5 1.1 1.1-.5 0-1.3-.4-1.1-1.1Zm1.7 29c-1.5.9-.8 1.3-1.6-.4.1-.9 2.4-.1 1.6.4Zm.9-22.7c-2.1 1.6-1.1-.5 0 0 0 .1 0 .1 0 0Zm2.2-8.6c-.3.2-.2 0-.2-.2-1.1-.1.1-.1 0-.6.2-.1.4.8.2.8Zm2.6 52.3c-.8.8-1.5-.7-.5-.7.3.2.8.1.8-.3.3.2-.1.7-.3 1Zm1.8-40.9c-.8 1.2-2.7-4.2-1.2-1.8.9-2.3 1.6.9 1.2 1.8Zm2.4 18.7c-.4.2-.7.4-1 .6-.3-.9.8-1.4 1-.6Zm6.1 30.2c-.5 2.1-1.3-.4-.2-.4l-.2.2c.2 0 .6-.1.4.2Zm11.8-28.8c-1.2 1.4-.6-1.6-.4-3.4.5 2.2.6 3 .4 3.4Zm2.8-22.6c-.9.1-.4-1-.1-1 .1.1.1.9.1 1Zm0-17.6c.1-.3.1-.5 0-.8.4 0 .7 1.1 0 .8Zm.8 23.3c-.3 0-.6-.7-.7-.9.4.1 1.8.9.7.9Zm1.3-26c-.6 1.7-.7-.9.2-1.1-.1.6.9 1-.2 1.1Zm1.3 38.2c-.1.4-.3.6-.6.2 0-.8 1.1-.9.6-.2Zm.5 3.5c.3-.6.9-1 .9 0h-.9Zm1-37.5c-.6-1.1 1.2-2.3 1.2-1-.2.1-1.2 1.8-1.2 1Zm1.6 46.6c-.5.3-1.3-1.6-1.2-1.6.9-.7 1.3.9 1.2 1.6Zm2.1-10.5c-.2.1-.6-.3-.6-.4.3.1 1 0 .6.4Zm2.8-53.2v1.3c-.9-.3-.9-1.1 0-1.3Zm-.3 40c-.3-.5-.8-.7-1.3-.8.5-1.2 1.9-1 1.3.8Zm0-8.4c-.1.2-.2.7-.5.6.1-.6 1-1.8.5-.6Zm.4 1.9c-.8-.7.8-.7.8.1-.4 0-.6 0-.8-.1Zm5.2-16c-.2 0-.3.2-.5.2-2.2-.4 1.6-1.3.5-.2Zm8.9-14.1c-.3.1-.1-.2-.2-.4h-.7c0-1.3 2.9.2.9.4Z"/>
  <path fill="#fff" fill-rule="nonzero" d="M264.6 296c.1-1.8.2-6.1-.7-7.5 1.7-1.5.3-7.2.7-9.4-1-.5-.6-1.9-.9-2.8h-10.6c-.6.7-1.8.8-2.4 0-.7 0-6.9-.4-6.9.7-3.7-1.3-8.4-.5-12.1-.2-2.5 0-6.5-1.3-8.7.2-13-1.7-10.8 2.4-10.8-12.1-.2-1.8.4-4.5-.4-5.9-.3-3.1 3.9-3.2 5.5-2.2 5.6 0 12.7-.3 18 0 .3-.2 3.4.3 3.4-.4 2.4 1.3 6.7-.8 8.8.4.2-.2 3.4.4 3.3-.4 3.5 1.5 7.7-.2 5.4-4.5.7-1.6.2-3.4-.3-5 1-1.3 1-5.2.2-6.5 0-.3 0-.8-.1-1.1 3.1-3.8-6-1.7-6.9-2.4-4.5.3-9.7-.5-14.1.6-.8-1-8.8-.9-9.8-.2-1.4-1.4-3 1.3-4.3-.4-1.7.3-5.4-.8-6.6.7-4.4-1.6-1.4-8.9-2.2-12.5-.2-1.6-.6-8.4 2.6-6.4 7.5-.5 16.4.6 23.2-.6 1 1.1 2.4.3 3.6.2.1.7 8.6.6 8.8 0 1.1.3 2.8.4 3.8.4 1.4.3 3.6-.3 4.8-.6 1.3 1.4 4.4.6 3.6-1.7-.2-2 .3-9.2-.6-10.9.9-.2.8-2.1.5-2.6 1.3-4.5-2.2-5.7-5.7-4.3-5.6-.6-12.8-.7-18.3 0-7.6-.4-16.7-.8-24.3 0-.6-.7-2-.5-2.5.3-1.6-.1-3.3-.6-4.9-.7-1.3 1.3-2.7-.2-4.1 0-1.3 1.7-3.8-1.2-5.5.5-1.5-.3-3.3-.2-4.8.1-.7-.9-3.2-1-3.7 0-4.3-2.1-1.5 9-1.9 11.4-.7 1.7.2 5.7-.3 7.2-.2.2.6 1.3.6 1.4.1.9.1 1.5-.6 2-.3 1.5 1 1.3 0 2.2.3.6-.4 5.1.4 5.4-.8.6-.5 3.2.3 3.8.2.6-.2 1.4-.7 1.6.5 1.8-.8 5.2.6 6.8-1.2.1-.6 6.9-.4 7.3-1.4 1.7 1.4 5.4-.3 6.6.2.6-.3 2.8.5 3.2-1.4 1.5.3 3.2.1 4.8-.8 1.3-.9 3.6-.3 4.9-1.1 6.4.6 13.5-.3 19.6.4.2-.6 5.1.6 4.8-1.3 1.2-.6 6.8 1.8 4 1.3 1.4 5.6.1 6.7.7.9.3 1.8-.8 2.3 0 .8-.1 1.2.2 1.4-.8.7-.3 2.1-.3 1.5.8 4.5-1 10.3 1.1 15-.6 1.5.9 8.5.9 9.8 0 .6.6 1.7.8 2.4.4.1.4 3.7.3 3.8.1 1-.5 2.8.8 3.7-.3.9-.6 1.7.3 2.5.4.5-.3 1.6-.6 2.2-.7.2.9 17.2 1.7 15.2-.5 1.5.1 2.2.9 1 1.2 1.1.3 2.4-.6 3.4-.4 1.6 1.4 3.6.2 5-.1Zm-11-47.3c.6-.7.7.8-.1 0 0 .1 0 .1.1 0Zm-5.4.8c1.8-.2 1.5 1.3 0 1v-1Zm-2.2-2.4c.1-.5.9-.7 1.3-.2.3 1.1-1.9 1.5-1.3.2Zm-3.7-2.5c1.2-2.4.7.3-.3 1-.1-.2.1-.7.3-1Zm-.5-2.4c.7 1-1.1.9-1.2-.2.5 0 .9.1 1.2.2Zm-4.5 7.9c0-.1.1 0 .1 0h-.1Zm-.8-5.8c.1-.1.3.2.5.4-.3.4-.5-.3-.5-.4Zm-.4-5.6c.3.3.2.7.2 1.1-.4.1-.3-.9-.2-1.1Zm0 10.5c.7-.1 1.2.2 1.3.7-.5-.1-2.2 0-1.3-.7Zm-1.5-.7c.1-.1.4-.2.5-.1.1.3-.6.5-.5.1Zm-6.6 0c-1.1.4-.7-1.3 0 0Zm-4.5-3.6c.6-.5.8-.4 1.3-.4-.4.6-1.5 1.8-1.3.4Zm-7.9 5c1.3-.6 1.6 1 .5 1.9.3-.8 0-1.4-.5-1.9Zm-5.9-3.7c0 .4.4.7.6 1-1.3 1.2-2.2-1.3-.6-1Zm36.2-43.6c.3.5.6 1 .8 1.4-.9.3-1.5-.3-.8-1.4Zm-4 12.4c.1.3.2.7.3.9-.3-.1-.6-.3-.9-.5l.6-.4Zm-4-13.5c.6-1.6 1.3.5.2.5-.2-.1-.4-.2-.2-.5Zm-7.4-1.2c.3.3-.1.6-.4.4-.2-.2.2-.4.4-.4Zm-2.2 15.4c.4-.1.7-.6 1.1-.9.4.6-.7 1.2-1.1.9Zm-40.2 76.2c-.3-.4-.6-.9-.5-1.1.4.5.9.2.5 1.1Zm7-68.1c-.5.4-.7-.9-.8-1.2.5-.8 1.3.3.8 1.2Zm.3 19.8c-.1.1 0-.5-.1-.5-1.8-.6 1.4-1.4.1.5Zm.5-7.6c-.8-.1-.5-.7.1-.3 0 .1 0 .2-.1.3Zm1.9 30.7c-.4.9-1.5.9-1.1 2.2-1.7-.4.2-1.9.7-2.3 0-1.3.6-.8.4.1Zm1.8-28.2c-.9.8-.8-.9 0 0Zm5.2-20.9c-2.3.7-.2-4.1.2-.4.1.1.1.4-.2.4Zm-2.6 30.9c-.2-.3.3-.6.5-.5.1.1 0 .5-.5.5Zm1 43.1c-.1 0 0-.7 0-.7.9.1.9.3 0 .7Zm2.3-33c-.2.2-.2.7-.4.8-.6-.8.7-2.5.4-.8Zm1.5-35c.7-.6.9 1.5.5 1.9-.7 1.1-.9-1.4-.5-1.9Zm1.1 70c-.4.3-1-.3-1.5-.3.1-.1.1-.3.2-.4.3.2 1.3.3 1.3.7Zm4.6-8.3c-.4-.2-.6-.7-.6-1.2.9-.6 2.4 1.4.6 1.2Zm5.9 10.4c-.6-.2-.3.6-.4.9-2.3-.1.7-4.1.4-.9Zm12.4-1.1c-2-1.1-5.2-3.2-3.8-4.2.3 2.7 1.8 2.2 3.8 1.6v2.6Zm-.3-7.7c-.1.8-.6.4-.8 0 .1 0 .6-.1.8 0Zm14.8 8.6c-2.7 1.3-.8-3 0 0Z"/>
  <path fill="#fff" fill-rule="nonzero" d="M738.7 277.5c0 .2.1.5.2.7-.1 1.2-1.2 3.9-.1 5-.4 1.8-.8 5.4.1 7.3-.5 2.5-4 1.4-4.5-.5-2.8-3-5.4-7-8.4-9.6-1.7-2-2.8-5.1-5.5-6.3.4-1.1-4.2-6.3-5.4-6.7.4-.7-2.4-4-3.1-3.8-.6-3.1-5.8-5.6-6.2-8.2-2.5-3.9-7.1-7.1-8.7-10.5-1.5-1.1-2.5-4.4-4.8-4.7.2-1.3-4.1-6.4-5.2-6.8-1.5-2.9-5.2-7.1-7.8-9.3.2-3.5-12-1-14.8-1.8-1 .3-2 .3-3 0-.8.3-2.2.9-2.8 0-10.6 1.1-12.7-4.2-12 9.7 1.7.8-1 2.8.7 2.8-1.2 2.6-.4 7.2-.7 10.5 2.2-.5.8 1.9 0 .4 0 1.3.3 2.7.6 3.9-1.7 6 .1 13.3-.6 19.9.6-.7.6 1.6.3 1.8-.1-.3-.2-.5-.3-.7.1 3.1 0 6.5.1 9.5.6.2.1.9 0 1.2.5 7.5-.8 16.1.3 23.6-1.3 1.2.6 2.4.3 3.6-.6 1.5-1 3.6-.1 5-1.6 4.8.4 2-.1 4.8-1.1 2.6 0 5.8.1 8.6-1.6 6.9 0 15.4-.6 23 .9 1-.7 1.4.6 2.9.3 1.3-1.7 2.6-.1 3.7-1.3 2.2 3.8 1.7 4.7 1.1 1.3 1.3 3.5-.4 4.9-.3.3.9 2 1 2.6.4 3.6.6 9.5 0 13.4.3-.7-.7.2-.7.6-1-.1.3.2.8-.2 1 1.5.3 3.3-.6 4.6-.7.5 1.1 3.1.8 3.8.1 3.7 3.7 3.1-13.9 2.3-15.8 1.4-2.2-.6-5.5.5-7.6-.7-2 .3-5.8 0-8-.8-.3-.4-.7 0-1.2.1-.9 0-1.4-.7-1.6 1.4.3.5-2.4.7-3.3-.9-.3-.5-1-.2-1.6.7-.7-.4-5.5.2-5.7.3-.8-.8-1.8 0-2.4.5-1.7-1.1-4.7 0-6 0-.5.2-2-.6-2.2 1.1-2.1.7-7.7 0-9.8.9-4.3 2.3-5.8 5.1-1.4.9.2 1.2.4 1.1 1.3 1.7 2 4 4.5 5.5 6.7 1.1-.1 1.6 1 1.6 2 4.7 5.3 12.6 15 16.8 20.3 4.4 4.3 7.6 10.4 12.5 14-.4 1.2 1.2 2.8 2.3 2.9-.5 1.3 1.4 2.3 2.1 3 2.2 3.1 4.7 7.4 8 9.2 1.6 5 6.3 9.3 12.3 7.2.9.4 7 .4 8.2.4 1.8-1.6 7 1.5 8.9-.6 2.9.5 8.7 2.2 7.6-3.2-.8-.5-.8-1.6 0-2v-2c-1.2-1.8 1.2-5.3-.5-6.8 1.1-.6.2-3.9.5-5-.7-8.6.4-17.8-.3-26.6-1 .5-1.2-.4-1.4-1-1.1.6.7-1.7 1.3-1.5-.5.5-.9.9 0 1.2 1-6.1.2-13.8-.1-20 .8-.9.9-5.4-.2-6.2.9-2.5.8-6.8.4-9.8.3-.7.6-4.5-.3-4.9.8-.1.5-1.8.6-2.4-.5-2.3.8-6.7-.5-8.8.3-1.2 0-.9-.9-1.5-1.2-1 .9-1.3 1.2-.2.8-3.3-.4-8.3.3-10.9-.3-1.4.7-3.7-.6-4.6 1-.7.9-7.8.1-8.6.6-1.1.9-3.9 0-4.9.7-.2.5-1.7.5-2.2.1-3.6-1.4-2.9-4.3-3-2.1.4-6.7-.8-8.4.6-.5.1-1.4-.1-1.7-.6.1.2-7-.3-6.5.2-4.5-.1-9.1.1-13.9 0 .4.4-1 .5-1 0-2-.1-2.6 4.1-1.2 5.2-1.1 4.9-.6 11-.5 15.9-.1 1-.6 4.2.4 4.9-.8.2-.8 3.5-.1 3.8-1.3 2 1.2 5.2-.3 7.4.6 1.5-.8 3.3.4 4.9-.8 3.4-1 8.8-.2 12.5 0 .2.1.3.1.4Zm-91-50.5c-.1 0-.2 0-.2.1-1-1.7 1.9-.8.2-.1Zm-.6 28.3c-.4-.6.4-.5.8-.3-.3.3-.6.4-.8.3Zm9.4 48.7c.3-.2.4-.5.5-.7.7.4-.1.7-.5.7Zm-8.3-37.9c.5-.8 2.2.4 1 1-.9 1.1-1.8-.2-1-1Zm2.1 67.5c-.5-.3-1 .1-.8-.7.1-.9 1.9.1.8.7Zm-.1-3.4c0-.2.2 0 .3-.1-.1.1-.2.1-.3.1Zm-.5-51.7c.3-.5 1.5-.8 1.8 0-.3.9-1.2.7-1.8 0Zm1.9 62.3c0 .1-.1.2-.1.2-.3-.1-.1-.5.1-.2Zm14.6-38.6c-.6 0-2.1-.1-2.3-.7 1.7-.9 2.8-1 2.3.7ZM653 279c-1.5.3 1-1.6 1 .7-.3-.3-.5-.7-1-.7Zm.2-16.8c.1.3-.4 1-.3.4-.1-.4.2-.9.3-.4Zm.1 78.7c-.3-.7.1-1.4.8-1-.1.3-.5.8-.8 1Zm16-48.8c-.6-.6 0-1.7 1-1.8 0 .7.1 1.5-1 1.8Zm-14.8-40.5c-1.2 1.9-3.6 1.3-1.9-.6.6-.4 2.2-.3 1.9.6Zm3.1 91.2c-.8 0-1.6-.9-.6-1.4.6-.1.7 1.1.6 1.4Zm4.4-80.2s.1 0 .2.5h-.5c.1-.4.2-.5.3-.5Zm.4 1.6c-1.2.5-.5-.6-.2-1.1 0 .4.8.9.2 1.1Zm2.6 84.6c.1.1.1.2.1.3 0 0-.2-.3-.1-.3-.1-.1 0 0 0 0Zm-1.5-92.2c-.6-1.2.9-.6 1.2-.2-.1.7-1 .9-1.2.2Zm.6 91.6c.2.4.7.9 1.1 1.2-.8.7-1.6-.8-1.1-1.2Zm2.3-89.4c-.3-.6-1.3-.7-1.3-1.5.8-.5 2.3.2 1.3 1.5Zm3.2 2.6c-.5.2-1.4-1.1-.6-1.3.4.3 1.9 1 .6 1.3Zm.8-30.8c-.3.1-1.3-.3-1.4-.9.7-1 1.8.2 1.4.9Zm6.7.6H676c-.4-1.2 1.3-.7 1.1 0Zm6.7 6.5c.4-.7.7.6 0 .3v-.3Zm-4.2 72.3c-1.6.7-1.1-1 0 0Zm1.4-78.1c.4-1 1.5.4 1.5 1.2-.7.1-1.4-.1-1.5-1.2Zm1.2 24.9c.7-.6.8.6 1.4.6-.5.3-.9-.5-1.4-.6Zm2.2 3.1c-.8 1.3-1.7-.7-.3-1.2.1.7.8.6.3 1.2Zm1.4-4.8v.2c0-.4-1.1-.1-1.1-.3.4-.3.8-.9 1.1-1.1.1.6.1 1.1 0 1.2Zm2.7 3c-.6-.8 1.1-1.1.9 0h-.9Zm1.5-3.3c-.2.4-.7.5-.6 1.1-.7-.5.8-.9.6-1.5v.4Zm15.5 39.8c-.4.9-1.4-.9-.2-.9.6 0 1 .2.9.6-.3 0-.9-.2-.7.3Zm15.6 5c-1.4-1.5-1.2-1.8.6-2.1-.1.8-.3 1.5-.6 2.1Zm-12.6 8.3c-.1 0-.1-.8-.1-.9 1.3.1 1.2.4.1.9Zm2.5 7.2c-.8-.4-.3-1.3.4-1.3.6.4-.1 1.2-.4 1.3Zm1.5-4.8c.3-.4.5-.8.6-1.1.8.7 4.2 1.1 4 1.9-1.3.9-3.1-.8-4.6-.8Zm6.8 13.6c-.3.2-.1-.7-.2-.8-.1 0-.4.1-.4-.2.2-1.9 1.7.6.6 1Zm16.7 20.5c.3-.3.7-.3.6.2-.3.1-.5 0-.6-.2Zm19.7-87.9c-.2.7-1.4.7-1.1-.1.2-.1.7-.2 1.1.1Zm-5.6-31.9c1.7-.2.7.9-.2 0h.2Zm-.1 13.1c.5.1.9.1 1.1-.4.7.7-.7 1.3-1.3.3.1.1.2.1.2.1Zm-9.9 70.7c-.3 0-1.1-.1-1.2-.5.9-.5 1.5-.6 1.2.5Zm.1 12.7c0-.1 0 0 0 0Zm1-83.5c-.3 0-.5 0-.8-.1 2.2-.9-.4-1.4-.5-2.6 1.4 1.1 3.4 2.3 1.3 2.7Zm-.3 2.2c.7-.1.5.8-.1.5 0 0-.3-.6.1-.5Zm.8 79.2c.5 0 1.1.4.9.8-.7 1.1-2.7-.2-.9-.8Zm1.2 5.9c-.8-.1-1.4-1.6-1-2.2 1.6-.5 1.9.6 1 2.2Zm1.7 20.6c0 .1-.2.4-.5.3-1-.4 1.1-2 .5-.3Zm1.7-86.9c-.3-.9-.8-1.5 0-1.6.6-.1.1 1.4 0 1.6Zm1.9-19.7c-.1-.1-.3.2-.3.2-.6-.1-.2-.5 0-.9.1.1.1.1.2 0 .5-.2.4.6.1.7Zm1 22.9s0-.1 0 0Zm.2-.4c-.1-.8.5-2.2.8-.8.3.9-1 1.7-.8.8Zm.5 55.4c-.1-.9.8-.8 1.3-.4 0 .7-1.1 1-1.3.4ZM751 335c-.4.3-.5-1 .1-.9.2.5.1.7-.1.9Zm.1-83.9c-.3.1-.3-1 .2-.8.9-.4.2.7-.2.8Zm1 21.9c-1-.9.2-1.9 1-1.1.7.6-.4 2.1-1 1.1Zm1 24.4c-.3.2-.1-.6-.1-.7-.1 0-.4.1-.4-.2.2-1.8 1.6.6.5.9Zm.3-55.6c-.7.3-.4-.3 0-.4.3-.3.3.1 0 .4Zm-.2-8.1c-.1.1-.2.1-.2.2-1-1.6 2-1 .2-.2Zm2.3 27.8c-.5-.5.1-.7.5-.6 0 .1-.3.4-.5.6Zm8.3 22.1c.1-.1-4.1 1.1-3.4-.8.5.2 4.5-.6 3.4.8Zm.5-12.2c.7-.2.1.6 0 .9-.2-.2-.3-.8 0-.9Zm-2.8-41.6c.3.2.6.5.9.6.1 1.1-1.2 0-.9-.6Zm.9 125.2c-.8 1.3-.3-4.5.1-1.7.1.5.1 1.3-.1 1.7Zm1-94.2c-3.5 1.3-2.5-1.3.3-.2-.1 0-.2.1-.3.2Zm-.3 34.1c.4-.8 1.3-.3 1.3.4-.5.6-1.2 0-1.3-.4Zm2 11.6c-.8 2.2-1.9-2.7-.5-.4l.4-.4c.2.3.2.6.1.8Zm6.3 12.7c-1 1.1-1-1.7.3-.4-.2.1-.3.2-.3.4Zm1.9-51.2c.4.1 1.2-.6 1.2.1-1 1.6-2.2-.1-1.2-.1Zm-1.1 31.1c-1.6-.9.8-2.5.8-1.1.2.9-.4.8-.8 1.1Zm1.4 1.2c-.1 0-.1 0-.2.1-.2-.1-.3-.2-.4-.4.4.3.7-.3.9-.1 0 0-.4.3-.3.4Z"/>
  <path fill="#fff" fill-rule="nonzero" d="M679.6 193.7c-.4-1.6.3-3.3-.7-4.9 1.4-1.4-.2-2.7-.3-4 1.7.5.5-3.5.9-4.4-.5-8.5.8-19.5-.7-27.2 1.6-1.5.3-7.2.7-9.4-1.8-1.3 1.4-3.8-.6-5.4 1.5-9.6.1-20.5.6-30.6-1.5-5.6 3.8-11.3-5.6-9.2-.1-.5-5.2-.1-5.5-.2-.6.8-1.8.8-2.4 0-.5.4-7.1-.7-6.9.7-3-1.2-7-.3-10.3-.7-2.3 1.2-.9 6.4-1.4 8.7.5 8-.2 18.8 0 27.1 2.1 6.7-3.9 2.4-6.9 4.1-6.3-1.3-13.7-.2-19.8-.2-1.8-1.6-6.4 1.2-7.9-.3.1 0-3.6-.2-3.3.3-1.7-3.1-.5-8.5-.7-12-1.1-3.1 1-6.5-.6-9.8 1-.3.6-5.4.4-6.2.4-.7.3-1.8-.2-2.4.8-.3.6-4.6 0-5 1.2-5.2.4-4.4-4-4-4 .1-9.7-1.2-13.6.3-.6.1-1.5-.2-1.9-.6h-6.1c-.4.9-1.2.4-1.8 0-.3-.1-2.9 0-3.3 0-.9 1.8-1.4-1.1-1.2 2.8.4 3.5-.6 8.8.5 12.5-1 1.4-.5 5.7.1 7.4-1 2.7-.7 7-.1 9.8-.8 1.1 0 2.4.1 3.6-.7.6-.7 1.9 0 2.5-1.3 4.1-.1 11.7-.6 16 .6 6.1-.9 14.4.6 20.7-1.3 9.4-.8 21.9-.1 31.4 1.5.5 3.4-1.2 4.5 0 6.2-.6 13.2.7 19.1-.4.7.7 2 .5 2.5-.3.8-.3 5.9 1.6 4.9 0 1.6-4.9-.3-2 .1-4.9 1.1-2.6 0-5.9-.1-8.7.8-.7 1-3.2 0-3.8 1.6-6.1-.1-13 .6-19.4-.6-.3-.2-1 0-1.5-.6-1.7-.7-1.4.7-2.7 2.8 1.4 8.1.1 11.6.6.7-.8 2.1-1.1 2.6 0 5.4-.2 11.2 0 16.9 0-.1-.7 1.3-.7.6 0 1 .2 2-.9 3.1-.7.8 1.3 2.8.2 3.7 1.4-.5 7.1-.6 16-.3 23.4.7 3.1-1.4 8.2.3 11.2-.7.2-1.1 5.7.1 4.9.9.9 4.6.7 5.8.7.6-.8 2.1.7 2.9-.4.9.9 3.9.4 5 0 1.1-.1 2.9 1.2 3.7-.1.6.5 1.7.6 2.5.6h5.9c.6-.7 1.9-.5 2.6 0 5.3 0 2.1-.7 3.2-3.1 0-.7 0-2-.6-2.5 1.3-.9.4-4 .7-5.7Zm-100-62.1c-.4 0-.5.2-.6.3-2.4-2.2 2.6-2.6.6-.3Zm.8 1.3c.1.1.4-.3.4-.4.5.2-.5.5-.2.7-.3.2-.6-.2-.8-.4.2 0 .4.1.6.1Zm.5 44c.1.5-.3.5-.7.4-.2-.3.1-.7.7-.4Zm.3 24c-1.2.3-.1-1.5.1-.1 0 0 0 .1-.1.1Zm2.7-27.2c2.1-1.1 1.5 1 1 1.7-.8-.5-1.2-1.3-1-1.7Zm2.1 7.7c.2.6-.8.7-.7 0 0-1.3 1-.9.7 0Zm-2.9-36c.5.8-.1.7-.4 1.1.1 2.1-1.4-.3-1.2-.8.1-.4-.1-.8-.4-.3-.6-.6 1.2-2 1.8-2-1.9 1.6.7.8.2 2Zm5.5 59c-.7 1-1.1-1.8-.2-1.6.4.3.5 1.2.2 1.6Zm.2-74.3c-.4-.2-.7-1.2-.2-1.6.3.7.5.6 1 0 1.5-.5-.7 1.7-.8 1.6Zm7.4 13.3c-2.1.1-1.5-.9.3-.4-.2.1-.3.3-.3.4Zm.4-4c-.5.8-1.4-.4-.9-1 .3.6 1.4.1.9 1Zm1.3-12.4c-.9 1-1.8-.9-.6-.8.7.3 1.6-1.2.6.8Zm3.2 28c-.3-.2-.6-.7-1-1.1 1.7-.8 1.4-1.5 1 1.1Zm3.3 45.7c0 .3-.6.4-.7.2-.9-.8 1.6-1.3.7-.2Zm.5-47.3c1.1-1.2-1.7-1-.3-2.2.8 1.1 1.5 2.3.3 2.2Zm10.2-6.4v-1.6c1.1-.3.8 1.1 0 1.6Zm3.5 15.7c-.6-.4 0-1.2.7-1.1-.1.5-.2 1.1-.7 1.1Zm3.5-14.5c-1.1-.9-.9-1.2.5-.4 0 .1-.2.1-.5.4Zm9.9.4c-.2.9-1.4 2-1.5.3-1-2.2 2.1-3.5 1.5-.3Zm5.4 9.1c-.5-.3-1 .1-.8-.7.2-.9 2 .1.8.7Zm15.7 16.2c-.2-.5-1.3-.5-1.2-1 .7-1.3 2.4-.4 1.2 1Zm1.4 7.5c0 .2-.1.9-.3 1.2-1-.3-.4-1.6.3-1.2Zm3-4c-1.6.1-.6-.9.1-.7 0 .4-.1.7-.1.7Zm1-8c-1.6.7.4-1.8-1.2-1.7-2.7-2 4.5-.3 1.2 1.7Zm6.9 28.2c-1.9.8-1.6-2.3-1.5-3.5 1.6-.6 3.7 2.5 1.5 3.5Zm3.9-6.2c-.3 0-.8-.3-.5-.5.4 0 1.3.1.5.5Zm1-7.8c-.4.9-1.6.2-1.2-.4.5-.6 2.1-.2 1.2.4Zm1.4 7.4c-.1 1-.8-.3-.7-.5.4-.4.8-.1.7.5Zm-.4-43.5v-.4c-4.3 1-1.5-.5 1.1-.3-.2-1.5-1.9-.7-2.8-.9-.4-1.2 1.6-1.1 2.2-1.1 5.8.3 1 6.3-.5 2.7Zm2.3 40.6c-.5.2-.8-.3-1-.6.2-.9 2.9 0 1 .6Zm.9-7.6c-.2.5-.3.3-.8.1-.9-.4 1-.8.8-.1Zm.3-1.5c-.4-.1-1-.7-.8-1.3.7-.2 1.9 1.5.8 1.3Zm.8-2.3c.1.6-.4.1-.4-.1 0-.9.7-.6.4.1Zm-1.7-48.3c-1.5-1.3 1.4-.4-.2-2.9 2.6-.6 2.7 3.6.2 2.9Zm4 2.9c1.4.3 0 2-.2-.3.1 0 .2.1.2.3Zm-.7 19.7c.4-.6 2.8-1.9 1.8-.5.5.8-1.8 1.6-1.8.5Zm1 32.3c-1.8 1.6-.4-.9-1.5-1.9.3-1.6 1.8 1.4 1.5 1.9Z"/>
  <path fill="#fff" fill-rule="nonzero" d="M72.3 106.8c.1-1 0-2.9-.5-3.8.9-.1.4-3.3.5-3.8 0-1.3-1.5-.6-2.2-.8-11.4.6-24-.7-36.3.5-1.2-1.1-8.5-.3-9.8-.1-1.5-.1-6.4-1.3-7.4.3-3.3-1.9-11.6.5-14.7-.7-1.4-.3-2.3.8-1.4 2.1-.6 4.3-.8 11.9.5 16h1.8c0-.6.7-.7 1-.2-.1-.8.7-.5.5.2.7-1 1.5.7 2.8-.6 1 .5 2.9 1.2 3.7 0 1.4.2 2.6 0 3.8.6.8-.5 2.1-1.1 2.8 0h4.7c1.2-1 2.3-.4 3 .8-.5.6-.4 2.1.3 2.4-1.3 1.3-.4 4.4-.2 6-.8.7-.6 3 .2 3.7-.8.4-.9 1.9-.3 2.4-.6 1.4-.5 5.8-.1 7.4-.5.7-.3 1.8.3 2.4-.7 1-.9 2.8 0 3.6-1.4 2.1-.2 5.5-.6 8 .8.6-.7 2.1.3 2.9-.5 1.8.2 3.8-.3 5.8 1 2.1-.9 6.8.3 8.9-.5.7-.4 1.7.1 2.3-.8.8-1.1 7.8 1.7 5.3 2.6.9 7.3.3 9.9.2.5.4 2.2.4 2.5-.4.1 1.1 4.3.4 4.9.6.9-.9 2 .2 2.9-.1 1-.7.3-5.1.5-6.5-1 0 1.2-15.2-.9-13.8-.4-.5.1-3.4.9-1.9.5-3.5-.8-9.3 0-12.1-.3-2.6.7-7.8-.7-10.2 1.1-.8.8-2.8 0-3.7.6-1.8.5-4.1.5-6.1.9-1.5-1.8-3.1.1-4.1-.1-.4.3-3.1-.5-3.1 5.1-2.6 16.4.1 21.9-1.2 1.3.8 4.3.3 3-1.8.9 0 .3-7 .5-7.4Zm-68.8 1.1v-.4c.3 0 .2.3 0 .4Zm3.2 2.3c-.6-.4 0-1.2.7-1.1 0 .5-.2 1.1-.7 1.1Zm3.4-3.2c-.1.2-.1.5-.1.7-1.7-.5.7-2.3.1-.7Zm1-2.5c-.2-.1-.3-.2-.4-.3.4-.3.9.1.4.3Zm3.7 5.5c0-.4.2-.7.8-.7-.1.1-.3.4-.8.7Zm5.8-1.9h-.3c-.1-1 .5-.8.3 0Zm1.8-2.7c-.6 1.7-.7-.9.2-1.1-.1.6.9.9-.2 1.1Zm2.3-.4c-.2-1.1.7-.9 1.3-.5-.1.8-.7.6-1.3.5Zm.6 4.8c-.6-.7-.1-2.1 1-1.7.5.4-.9 1.5-1 1.7Zm1.1 29.1c-.6 1.7-.7-.9.2-1.1-.1.6.9 1-.2 1.1Zm.5-26.5c0 .1-.1.2-.1.2-.3-.1-.1-.5.1-.2Zm1.7.1c-.3-.7.1-1.4.8-1-.1.3-.5.8-.8 1Zm1.7 29.7c-.3.2-1.3 2.1-1.2.5-.4-1 1.5-1.6 1.2-.5Zm1.1-18.1c-.1.2-.2.7-.5.6.1-.6.9-1.8.5-.6Zm.4 1.9c-.8-.7.8-.7.8.1-.4 0-.6-.1-.8-.1Zm3.6 31.6c-.1.2-.2.7-.5.6.1-.6.9-1.8.5-.6Zm.4 1.9c-.8-.7.8-.7.8.1-.4 0-.6 0-.8-.1Zm9.1-33.5c-2.3 1-1.2-1.9-2.2-.9-.7-1.8 1.2-3.5 1.1-.6.1 1 .9 1 1.1 1.5Zm5.1-16.4c-.9.4-.7-1.1-.7-1.7.8-.2 1.7 1.3.7 1.7Zm5.8-4.6c-.1 1-.8-.3-.7-.5.4-.5.8-.1.7.5Zm1.9-2.9c-.5.2-1.4-.6-.6-1 .3-.2 2.3.5.6 1Zm5.9.8c-.7 0 0-.7.2-1 .3 0 .9.8-.2 1Z"/>
  <path fill="#fff" fill-rule="nonzero" d="M912.1 233.9c-.1-.5.3-3.5-.4-3.7.7-.7.5-2-.3-2.5-.2-1.2 1.7-5.5-.9-4.6-1.3 0-2.8-1.5-3.7.1-2.3-1-3.5-.2-5.8-.4-.4 1-2.7.8-1.3 0-.7.1-1.8.2-2.5.4-.4-.8-2.5-.6-3.2-.6-3.2.5-8.4-.3-12 0-3.3.9-7.2-1-10.5.6-.7.2-1.3-.1-1.7-.6h-1.5c-.7 1-.7-.1-1.5 0-.8.2-4.6-.4-5 .4-1.5-1.8-4.3 1.6-5.4-.4-6.4.5-13.7-.8-20.2.7-.4-1.1-3.1-.8-3.8-.1-8.7-1.1-19.2-.1-28.1-.4-4.7.5-16.8-2.8-13.4 5.2-.5.3-.5 1.3-.4 1.8l.5.6c-1.3 1.4.2 4.5-.1 6.1-.6.2-.4 1.7-.4 2.1.7 2.1-.9 7.9.6 10.4-.5.8-.9 2.2-.4 3.2 2.1 2 1.8-.2 3.7.9.8.1 1.9 0 2.5-.6 2.5 1.5 6.5.1 9.4.6.6-.9 1.8-.6 2.5 0 2.3-1 4.8.2 7.2 0 1.4.4 15.1-.7 14.9 0 2.8 1.4.9 9 1.3 11.9 1.4 1.1-1.5 7.9.7 9.2-1.2 6.9-.6 15-.1 21.8-1.1 2.2-.4 6.7-.2 8.5.4.4.2 1.3-.4 1.5.4 2.8-.7 7.1.5 9.5-.8.4-.8 3.3-.1 3.7-1 1.3.3 3.2 0 4.9.6 1.2-.7 2.5.2 3.6-.8.3-.7 2.1-.4 2.7.5 4.2-1.1 10.3.4 14.5-.4 2.6-2.3 16.5 3.5 13.3 2.4.7 7.4.7 9.7 0 .8.2 2.2.6 3 .2-2-.8.1-2.5.4-.1 2.7-.4 5.9 1.1 8.7-.3.5 1 7.6.8 8.6.1 6 3.1 3.9-7.7 3.4-10.8 1.6-2.8 0-8.6.6-11.6-.9-.7-.8-1.9 0-2.6-.3-1.8.8-5.4-.7-6.6 1.9-6.4-.1-14.7.7-21-1.3.2-1.5-1.9 0-1.7 0-.2.1-2.9-.2-2.9 0-5.8.7-12.9-.3-18.2 1.1-1 .3-2.4.2-3.6.6-.2.6-8.5 0-8.6.3-1 .4-2.8.4-3.7.3-1.4-.3-3.5-.6-4.7 1-.2.5-4.3.6-5-1.2-5.6 4.4-3.3 7.7-4.6.6 1.5 3 0 3.9.6 6.2 0 12.9-.1 19 0 0-.3.5-.6.9 0 .7.2 2.9 0 3.5-.3.6.3 3.4.7 3.8-.1 4.5 3.3 1.5-16.2 2.5-18.8ZM795.6 240c-.4.1-.7-.2-.9.2-.4-.5 1.3-.8.9-.2Zm12.5-6.1c-1.2.2-1.1-.7 0-.6.6-.2.6.8 0 .6Zm4.6-2.6c-.1-1.1-.1-1.4.8-1.3.4.8.1 1.6-.8 1.3Zm4.5 1.9c-.7-.1-1.7-.4-2.1-.6 1-1.3 2.4-1.5 2.1.6Zm10.9-7.1c.2-1.7 1.9-2.2 1.5-.3-.6 1.3-.5.7-1.5.3Zm2.1 9.6c-.2 0-.3.2-.5.2-2.2-.4 1.5-1.3.5-.2Zm15.3 71c-.5-.3.4-1.5.5-.9 0 .4 0 .8-.5.9Zm-6.9-36.1c-.4-.6.4-.4.8-.3-.3.3-.6.4-.8.3Zm.6-9.1c-1 .1-1.5-1-.5-.9.8-.1.9.8.5.9Zm-.2-19.1c0-.5-.6-1 .2-1 1 0 .5 1-.2 1Zm8.4 32.2c.5-.7 2.2.3 1.1 1-1 1-1.9-.2-1.1-1Zm-3.4 37.8c0 .1 0 .2-.1.4-2.2.2-.1-1.7.1-.4Zm5.7-26c.4 0 1.1.4.9.8-.8 1-2.7-.3-.9-.8Zm2 1.2c-.2-.2.1-.7.7-.7.5 0 .7.9.8 1.2-.4-.5-.9-.9-1.5-.5Zm-13-37.4c.7.4-.8 2.1-.5.7-1.9.1-.2-1.1.5-.7Zm-5.1 22c0 .9-.3 1.4-.4.4-.3-.2.1-.4.4-.4Zm-.2 9.2c2-.8 5.7.4 3.7 2.5-1 1.1 2.1 2.1-.2 2.3-1.7 3.5-3.4-1.4-1-2.2-1.6-.7-2.6-1.2-2.5-2.6Zm.1 17.3c.5-.6.8 1.2-.1.7 0-.3 0-.5.1-.7Zm.1 12.7c-.2-.7.6-1.1 1.1-.7.4.8-.7 1.1-1.1.7Zm2.3 7.2c-.9 0-1.4-.8-.7-1.1.1.1.9.7.7 1.1Zm9-40.8c.6-.3.7 1 .4 1.3-.3-.3-.5-.8-.4-1.3Zm.7 11.2c-.9.9-.8-.9.1-1.1.2.4.4.6-.1 1.1Zm-7.3 8.2c.4-.2.9.4 1.1.7-.7 1.1-1 .7-1.1-.7Zm6 52.6c-.1-.2-.8-.7-.5-.9.7-.4 1 .6.5.9Zm-.5-10.5c.5-.7 2.2-.7 2.2.2-.4.6-1.9.6-2.2-.2Zm4-3c-.3.1-.7.2-.9-.1.2-.4 1.7-.2.9.1Zm-.2-35.9c.2-2.9.8-.9 1.3-.1-.7 1-1 1.4-1.3.1Zm.8 31c-.3 0-.1-.7-.2-.8.9-.3 1.1.7.2.8Zm6.2-36c.4-.1.7-.5.4-.9-1.4-1.8 1.7-.5 1.5.9-.9 1-2.7.9-1.9 0Zm-2.2 50.8c-.1 0-.4-.1-.6-.2.2-.7.4-.3.6.2Zm.4 8.5c-.2.2-.2 0-.2-.2-1.1-.1.1-.1 0-.5.2-.2.4.6.2.7Zm.7-41.9c-2.4.6-.8-.2.6-.1 0-1.1-1.9 0-1.5-.9 2.1-1.4 3.9 2.3 1.3 1.8-.4-.2-.4-.3-.4-.8Zm1.1 38.3c-1-.8 2.1-1.9 2-1-.6.4-1.6.1-2 1Zm10.7-34.4c.3 0 1.1.2.9.7-.5 1.5-1.6-.1-.9-.7Zm1.9-5.5c-.1.5-.8.3-1.2-.1.3-.8 2-.7 1.2.1Zm-8.9-72.2c-.4-.3.3-1.8 1-.7.1.2.5.1.7.1l-.3.9c-.3-.4-1.3-.1-1.4-.3Zm19.5-7.4c.4.3.5 1.2.2 1.6-.8 1-1.1-1.8-.2-1.6Zm-6.2-6.1c.1.1 1 .6.8.6-.6.8-2.1.2-.8-.6Zm-.9 4s0 .1-.1.1c-1.3.3-.1-1.4.1-.1Zm-5.8 1.9c.9 0 0 1.1-.2.1 0-.1.1-.1.2-.1Zm-6.7 67.2c1.3.5-.1 1.4-.1-.2 0 0 .1.1.1.2Zm-.6 17.5c-.2-.7 1.9-1.8 1.7-1.1-.2.7-.4 1.5-1.7 1.1Zm4.8 36c-.4.1-.7-.2-.9.2-.4-.5 1.4-.8.9-.2Zm5.9-97.8c-.3.9-1.5.9-1.1 2.2-1.7-.3.2-1.9.7-2.3 0-1.3.6-.7.4.1Zm1.8-8.5c-2.8 2-2.3-2.3 0 0Zm16.6-18.3c.3-.4.7-1 .8-.2-.4.2-.6.3-.8.2Zm7 2c0 .3-.6.4-.7.2-.9-.8 1.7-1.3.7-.2Zm9.8 6.1c-.2.2-.3.5-.6.3-1.1-1 1.8-1.7.6-.3Zm2.4 11.8c.1-1.3-.4-3.3.1-4.4.7 1 1.4 4.6-.1 4.4Z"/>
  <path fill="#fff" fill-rule="nonzero" d="M637.3 356.3c-1.1-.9-.3-2.5-1.6-3.2.8-1.1-.7-2.7-1.5-3.4-.6-4.5-3.8-9.6-5.8-13.5 0 0-.2.2-.3.2-.1-.9.4.2.5-.6-.3-1.2-1.7-3.1-2.1-4-2-6.1-5.4-12.2-7.9-18.7-1.1-.5-.7-2.9-2-3.7-.7-.6-.7-1.3-.5-2-.4-2.2-3-4.5-2.8-6.2-1.4-2.2-1.7-5.5-3.7-7.2.7-.5-1.4-4.5-2-4.5-.2-2.7-2.6-6.7-4.1-8.8.5-2.4-2.7-6.5-3.3-8.9-1-.1.1-1.9-1.7-2.3-.7-2.2-1.1-6.6-3.5-7.8.8-1.8-3-7.2-3-8.4-1.2-3.3-4-7.9-4.9-11.1-2.1-2.6-7.8-22.3-10.9-19-4.1-1.4-11.7 0-16.1-.6-1.4-.3-3.6.3-4.8.6-.9-1.3-5.9-.1-6.5-.6-1.7.5-9-1.4-8.5 2.2-3.5 4-5 11.1-7.8 16.1l-.3 1.5c.8-.1.7.7.1.2-1.5.4-1.9 4.1-2.9 5.5.1 1.2-2.2 3.3-1.6 4.6-3.5 6.8-7.4 14.9-9.8 22.3-1.7.6-.4 2.3-1.2 3.4-1.1.6-1.2 2.2-2.1 3 .2 3.1-.9 1.7-1.8 4 .8 1-.3 2-1.1 2.5-1.2 2.3-1.3 6-3.4 7.7 0 .5-1.5 2.4-.6 2.9-3.9 4.9-5.1 11.7-8.3 17.2.5.5-.3 1-.6 1.3-.2.7.2 1.9-.4 2.6-1 0-1.8 1.5-1.2 2.3-1.6.3-2.2 5.1-3.1 5.7-.1.6-1.5 2.7-.7 3.4 0 .5-.7 1.3-1.3 1.2l-.7 1.5c-1.1 3.2-3.2 7.1-4.7 10.7.3-.5.9-.6 1.4-.2 0-.7.6-1 1.1-.4 0 .9 0 1.5-.6 1.4-.6.2-1-.1-1.7-.5-1.3 1-1.8 4.5-2.3 6.3-1.2 0-2 2.5-1.6 3.4-5.8 6.6 10.2 3.4 12.9 4.2 4.9-.9 10.8 1 15.4-.6.3.9 5 .5 5.7.6.6-1.5 3.8 2 3.6-3.4.8-.3 1.3-1.5.9-2.2 1.7-.8 1.5-4.1 2.3-5.5.7-.2 1.4-1.8.8-2.4 3.2-2.2 3.5-14.3 8-13h1.6c1.1-1.1 1.5.3 2.9 0 .3-.3 3.8.3 4.3-.1.9-.4 2.3.3 3.3.1.6-.9 1.9-.6 2.6 0 2.3-1 4.8.2 7.3 0 1.3.3 15.3-.5 15.5 0 2.6-.4 7.3.1 10 0 .6-.7 1.8-1 2.2 0 6.7-.5 5.7.5 7.9 5.9.4 1.6 2.2 4.7 3 5.9-.7.4 1.9 6.1 2.1 6.6 1.4.2.2 2.9 1.9 3.5 0 1.6.8 4.7 2.9 4.5 2.9-1.1 6.7.4 9.9 0 1.9-1.5 6.6 1.1 9-.4 1.3 1.2 6.6-.1 8.2.4.2-.1 4 .3 4-.5.2.9 2.8.4 3.4.5.4-.7.9.2 1.6 0 .8-.3 1.2-1.6 1-2.2Zm-152.4-2.7c2.2-1.5 2.5 1.8 2.9 3.7-2.3 1-.7-2.9-2.9-3.7Zm10.2-4.2c-1.3.4-1.6.5-.8-.9.5-.2 1.3.7.8.9Zm17.3-7.5c-.4.4-.8-.2-.8-.6-.7-2.7 1.6-1.3.8.6Zm2-20.1c-.3-.4-.6-1.1.1-.6.4.3.5.1-.1.6Zm3-25.5c.7-.5.4.9-.1.8-.2-.1-.4-.7.1-.8Zm-.2 46.6c-.3-.1-.8-.9-.3-.9.8-.2.8.5.3.9Zm-12.1-2.9h-.8c.2.4 1.7 2.4.8 2.7-2.4-1.1-1.6-5.4.3-3-.1-2.8 2.2.7-.3.3Zm22.5-55.3c.4-.8.8.5.4 1-.5.7-.8-.7-.4-1Zm-3.6-10c1.1-.1 1.4.9.7 1.1-.9 0-1.4-.7-.7-1.1Zm-2.3 26.2c.3-.6 2.9-1 2.3.2-.5 1-2.3 1.3-2.3-.2Zm2 22.6c-.1.2-.1.4-.1.5-1.4-.4.6-1.8.1-.5Zm5-14.6c-.3 0-1.3.1-1.4-.3.7-1.1 1.9-.9 1.4.3Zm65.1-12.4c0 .5-1.1 1-1.4 1.4-.6-.7.8-1.6 1.4-1.4Zm-.4-33.7c1-.1 1.9 1.5.4 1.3-.3-.1-.9-1.2-.4-1.3Zm-2.8-3.8c-.5.7-.6 0-.5-.5-1.5-1.3 3.3-1 .5.5Zm-12.1-33.5c0-1.4.6-.9.4.1-.4.9-1.5.9-1.1 2.2-1.7-.4.2-1.9.7-2.3Zm-.7 56.9c-.1.6-.8.3-1.2-.1.4-.8 2-.7 1.2.1Zm-2-24.8c.5 0 .9-.1.8.6-.4.2-1.8-.5-.8-.6Zm-4.2-11.1c.6-.5.4.2.5.6-.5.1-1.1-.1-.5-.6Zm-.7 1-.1-.1c.1 0 .1 0 .1.1Zm-6.2-11.1c3.2-2.1 4.7 3.4 2 3.5-.7-.7-3-2.5-2-3.5Zm.5 30.2c.4-.1.7-.5.4-.9-1.4-1.8 1.7-.5 1.5.9-.9 1-2.7.9-1.9 0Zm-11.6-1.4c-.7 1-2.6-.3-.9-.8.4 0 1 .4.9.8Zm-4.1 4.7c-.4 0-1-1.7-.1-1.4.8.4.4.8.1 1.4Zm-5.3 12.1c.4-.5 1.2-.4 1.3.3-.5.8-1.5.5-1.3-.3Zm-6.3 25.5c-.8-.7-1.5-1.3-.4-2 1-.9 1.2 2.3.4 2Zm-3.6 14.7c-1 2.6-1-1.3.3-1.6-.1.9 1.4 1.4-.3 1.6Zm-1.1-29.6c-.7-.5.4-.9.8-.5-.1.7-.4.6-.8.5Zm.4-2.8c.1 0 .1 0 0 0 .1 0 0 0 0 0Zm11.8-35.2c-.7 2.1-1-.8 0-1.3-4.2-.9-1-3.1.4-.3-1.1.5.6 1.5-.4 1.6Zm2.9 2.6c-.3-.3-.5-.8-.4-1.3.5-.3.6 1 .4 1.3Zm-10 14.5c.2-.7 1.2-.2 1.1.5-.3.7-1 .2-1.1-.5Zm-6.4 6.2c-.3.1-.4-.7-.4-.7.6-.6 1.1.8.4.7Zm13.7 11c.3-.3.7.2.9.7-.2.7-1.5-.3-.9-.7Zm2.9-22.9c.2-.3.4.5.4.6-.5 1.3-1.6.2-.4-.6Zm1.8-13.3c.2-.3 1.1-.5 1.4.1.3 1.7-2.6 1.5-1.4-.1Zm-1-20.9c.6 0 .7.3.7.5 0 1.3-2.3-.6-.7-.5Zm-8.2 2.1c1.2-1.1 3.1 1.1.9 1.2-.6-.1-1.1-.6-.9-1.2Zm-8.9 19.4c.4.1 1.1 0 1.4.2-.4.3-1.6.5-1.4-.2Zm-1.8 72.4c-1 .4-.5-2.3.1-1.1 0 .3 0 .9-.1 1.1Zm-.4-33.4c-.1.1-.2.1-.2.1-1.1-1.5 1.9-1 .2-.1Zm.4-39c-.5-.7-1.5-1.7-.9-1.9 1-.3 1.3 1.3.9 1.9Zm1 66.6c-.3.2-1.3-1-.6-1.5.6.5 1.9.5.6 1.5Zm1.1-9.9c.6.3.8 1.4-.2 2.4-.9-.5-1.1-2 .2-2.4Zm5.3 14.9c-.3.1-1.1 1.8-1 .5-.4-.8 1.2-1.4 1-.5Zm2-8.2c-1.2.8-3.3 1.1-2.4-1.1.9.5 1.8.7 2.9-.3 1.1-.3.6 1.6-.5 1.4Zm.8-53.5c.1 0 .1-.1.2-.1 1.6-.9 1.5 3.6.3 1.5.3-.9 0-1-.5-1.4Zm1.1 49.3c-.9.4-.7-1.3 0-1.4.5 0 .4 1.3 0 1.4Zm.5-37.6c.4-.4.9.1.9.5.9 2.2-1.7 1.8-.9-.5Zm2.9 37.6c-.8.8-1.8 1.5-1.7.4-.1-.6 2.2-2.1 1.7-.4Zm9.3 2.8c-1.3 1-.8-2.1-.1-2 .7.2.8 1.8.1 2Zm5.8-11c0-.1-.1-.1 0-.1v.1Zm15.6-1.7c-2.8 2.7-9.2-.5-12.4 1.5-5.2-1.2-11-.1-16.3-.6-2 0-5.2 1.1-4.6-2.2.6-3.7 17.5-37.4 12.2-35.6-.3-.9 1.4-.8 1.4.2.7-.4 1.4-1.4 1.2-2.3 1.2-.7 4.2-1.5 3.8 1 2.4 5.7 4.6 11.9 7.3 17.2-.5.2 1.3 4 1.4 4.2.4-.1.6.1.2.3.6.5 1.2 1.5 1.4 2.2-1 1.1 1.6 3.6 1.2 4.3.7 3.1 3.5 6.9 3.2 9.8Zm1-14c-.5 1.4-1.6-.2-.9-.7.3 0 1.1.2.9.7Zm4.7-12.7c-1 1.1-1.9-.1-1.2-1.1 1-.4 2.4 0 1.2 1.1Zm2.8-5.5c-.1 0 0-.7 0-.7 1 .1.9.3 0 .7Zm1.8 15.7c-.3.8-1.2.2-1.1-.5.5-.6 1.4-.3 1.1.5Zm.7-34.9c-.6.5-1 .5-.9-.4-1.6.3-1.3-1.3 0-1.1-.1-.8.6-.9 1.3-.3-.8.6 1 1.4-.4 1.8Zm1 20.8c.1-.1.1-.3.2-.4.3.3 1.3.4 1.3.7-.5.4-1.1-.3-1.5-.3Zm4 35.8c-2.4-2.2 2.6-2.6.6-.3-.4 0-.5.2-.6.3Zm2.1 14.4c.2-.4.2-.6-.3-.9-2.4 1.3 1.4-3.7 2.8-3.2-3.1 2.1.9 1.7.2 3.6 1.6 2.2-2.6 2.4-2.7.5Zm2.5 26.6c-2.1.4-.1-2.6.3-.3 0 .3-.2.3-.3.3Zm3.3-74.3c-.6-.2-.3.6-.4.9-2.3-.1.7-4.1.4-.9Zm1.9 31.5c-.4-.2-.7-1.2-.2-1.6.3.7.5.6 1 0 1.6-.6-.7 1.7-.8 1.6Zm5.8 48c-1.3 1.7-1.8-2.9-.3-2.5.7.5.8 1.9.3 2.5Zm1.6-34.7c-2.1.1-1.5-.9.3-.4-.2.1-.3.3-.3.4Zm.4-4c-.5.8-1.4-.4-.9-1 .3.6 1.4.1.9 1Zm1.3-12.4c-.9 1-1.8-.9-.6-.8.3.2.8 0 .9-.4.4.2-.1.8-.3 1.2Zm20.1 45.6c-.4.9-1.2.5-1.6-.2.1-1 2.9-1.3 1.6.2Z"/>
  <path fill="#fff" fill-rule="nonzero" d="M493.8 222.1c.2.1.2.1.3 0h-.3Z"/>
  <path fill="#fff" fill-rule="nonzero" d="M499.3 222.4s.2.2 0 .1c2.1 1.9-.2 2 0 .1v-.1c0-.1-.2-.2-.3-.1-.3.2-4.1-.2-4.7 0-.5.3-1.5 1.1-.9 0-1.7 1.3-8.1-1.4-9.6.6-4.2-1.6-9.2.1-13.6-.5-3 1.5-2.4 7.2-4.3 9.7 1.3-.8.3 1 0 .1-.1 2.8-4.1 8.2-2.5 10.5 1.6.7-.4 2.7-1 .7-.3.8-1.7 3.7-1 4.5-.7-.1-1.9 3-1.3 3.5-.7.3-1.2 1.7-.8 2.4-.4 2-1.6 3.9-1.7 5.8-1.9.5-.5 3.5-2 4.3-1.7 4.7-3 10.4-4.8 14.8.1 2.2-2.3 5.2-2.3 7.8 0 .8 0 2.4-1 2.6-.9 2.5-1.6 5.6-2.7 8.2-2.2 6.7-2.8 14.5-7.5 3.4-.7-6.7-4.2-14.5-6.3-21.2-1.1-4.4-2.4-10.1-4.6-13.9 1-2.7-2.3-6.1-2-8.3-3-8.6-4.8-17.7-8.5-25.6-.2-2.9-1-8.2-3.8-9.4-2.2 1.3-3.2-1-4.7.6-2.9-1.1-10.3-.3-13.4-.4-1.3-.2-5.4-.7-6.3.3-6.2-1.1-11.6-1.8-11.3 6.5-1.2.2-4.1 10-4.1 11.6-.8.3-1.5 3.9-.3 4.5-2.3-.5-1.6-.1-2 2.4-.8.3-1.3 2.7-1.3 3.4-.7.5-1.1 2.7-1.1 3.5-.5.4-1.7 3.1-1.1 3.6-.6.6-1.5 2.3-1.3 3.2-2.4 6.8-5 14.6-7.4 21.6 1.1 1.8-1.3 3.6-1.8 5.3.8 1.8-1 2.5-1.3 4 1 1-.3 2-.9 2.8 2-.5.1 3.6-.1.4-.4 3.8-2.1 7.1-3.7 10.4-4-1.1-4.8-11.4-6.5-15.2l-.3-.2c.6-1-1.3-2.5-.9-3.5-.3-.7-1.4-1.3-1.4-2.2.7-.7.3-2.3-.6-2.5.6-.2-.9-6.7-1.9-5.3-.3-.8-.4-.8.4-1.1 0-.3-.8-2.4-.8-2.6-1 0-1.5-1.5-.7-2.2-.3-.5-.3-1.7-.9-1.8.1-1-.6-4.2-1.8-4.5 1.7-1.7-4.8-12.8-3.6-13.6-3.5-8.1-4.8-18.2-8.9-26.4.8-4.1-6.7-1.6-8.2-2.4H309c-.4 1-1.2.5-1.8 0-.4.2-4.7-.4-4.8.4-.6-.6-1.8-.6-2.4 0-.9-.9-3.8-.4-4.9 0-1.1.1-2.8-1.2-3.7.1-7.4-2.1-10.9-.2-6.4 7.2.5 3.4 1.6 7.1 3.3 10.4-.7 1.2.9 2.5 1.4 3.4-.8 1.4.6 2.3 1.1 3.5-.5 3.6 4.5 15.5 5.8 18.7.5 3.2 2 8.7 4.1 11.5-1.1.4 1.9 9.6 3 9.5.6 1.7-.6 5.4 2.3 3.4-1.5 1.2.9.9.3 1.7.9 1-.9 1.6-1.4.7 1.7 4.1 2.7 8.8 4.2 13 2.3-2.1 4.6.6.7.6 0 .7 1.3 7.8 2.8 8.2-1.2.1 1.4 5.9 1.5 6.3 1.2 1.5 1.5 8 3.3 9.2 1.1 2 .6 6.8 2.8 8.1-.2 2.8 1.5 6.1 2.6 9 0 0 2.3.3 1.4.8-.3.1-.9.1-1.2-.1.3.9.5 1.8.6 2.5 2.8 9.7 3.2 7.5 13.1 7.6 1.8-.5 3.1-.6 5.2-.4-.3-.5.4-.9 1.5-.7 0 .1-.2.7-.3.8 3.2.3 6.7.8 9.7.1 14.8-.6 14 4.9 17.8-11.5 1-.6 2.5-4.9 1.8-5.9 3.9-7.1 5.4-15.8 8.5-23.9-.7-1.9 3.4-6.5 2.3-8.8.9-.6 1.6-2.4 1.1-3.5.9-.2 2.2-4.1 1.5-4.8 1.2-.5 3.2-7.1 2.8-8.1.9-.9 2-3.4 1.5-4.6 2.5-1.6 1.4-10.7 6.3-7 .4 5.8 3.7 11.4 4.9 17.3 1.6-1.3 1.6.4.5 1.2.9 0 .6 1.3.5 1.9 1.2 4.7 3.8 9.7 4.4 14 0 1.2 1.7 2 1.2 3.1.8-.2.5.8-.1.6 3.8 10.4 6.1 22.1 10.7 31.8-1 1.4 1.3 5.2 1.2 6.2.5 2.2 3.6 2.1 5.4 2 4.5-.9 10.2 1.3 14.6-.6 2.8 2 6.9-.9 9.8.7 2.8-.8 13.1 1.9 12.2-2.3.7 0 1.2-1.9 1.1-2.3.7-1.7 1.7-4 1.8-5.8.7-.4 1.1-1.9.5-2.5 2.2-.9 1.1-4.9 2.6-6.1l.7-2.2c-.4-.7-.4-1.2.5-1.4.5-2.6 2.5-6.4 2.6-8.9.7-.5.9-1.6.5-2.4.9-.7 1.8-2.4 1.1-3.5 2-1.6 1.9-5.2 3.1-7.5-.4-.4-.2-.8.3-1l.5-1.5c.3-1.1.7-2.6.9-3.9.7-.2 1.2-2 .8-2.5 1.7-3.2 2.5-7.9 3.8-10.6 1-3.1 2.6-8.2 3.6-11.1-1.4.4-.7-1.2-1.6-.9 0-.6 1.2-1.8 1.8-1.5l-.6.6.1.1c0 .1.1.2.4.2l.2-.9c.1 0 .1.1.2.1.2-.7 1.3-1.8.9-2.7.6-.3 1.1-2 .4-2.5 1.4-.3 2.1-4.6 2-5.8 1.2-1.6 3-6.2 2.7-8.2.9-.5 6.1-17.3 6.7-19-.4.5-1.5-.1-.7.7-.7.7-2.4-1.3-2.3-2.1 1 1.2 1.1.8 1.7-.3.7.5 1.4-.5 1.7.6.8-2.9 1.4-5.4 2.6-8.1 0-.5 2.1-5.9 2.1-6.6-.6-1.6.4-1.2.8-2.3.3-2.9-4.2-1.3-5.9-1.7Zm-211.9 8.9c-.6.4-.9-.4-.4-.7.2.2.8.3.4.7Zm8.4-4.4c-.4.4-.8-.2-.8-.6-.7-2.7 1.6-1.3.8.6Zm3.7 26.9c-.3-.8-.8-1.2.1-1.3.7-.1.3 1.2-.1 1.3Zm.6-26.6c0-.3.7-.1.8-.2.3.9-.7 1.1-.8.2Zm.6 2.6c-1.5-1.4 3.4-1.1.5.5-.5.6-.5-.1-.5-.5Zm1.8 49.2c-2.4-2.2 2.6-2.7.6-.3-.4 0-.6.2-.6.3Zm3.8 3.2c-.7.1-1.3-.9-.5-1.1.7 0 1.2.8.5 1.1Zm2.3-56.4c.8-.1 1.1 1.5 1.2 1.7-1.4 1.7-2.8-2-1.2-1.7Zm13.4 6.4c-.3 0-.7-.1-.9-.2.5-.4 1.1-.5.9.2Zm-2.4 54.6c-.3-.2-.9-.8-.4-1.3.5.4 1.6.7.4 1.3Zm1.2-41.7c1-2.1.7.2.2 1.1-.2-.1-.5-.2-.7-.3.3-.1.4-.5.5-.8Zm-.5 28.1c.6-.1 1.1.4 1.2-.4 1 1.1-2.1 2.4-1.2.4Zm-2.2-2.6c.1-.8.5-.8 1.3-.4-.4.4-2.3 1-1.3.4Zm.9-20c0 .2-.9.1-1 .1 0-1.3.4-1.3 1-.1Zm-4.3-14.6c.7 0 .9 0 .9.5-.5.2-2.3-.1-.9-.5Zm-.4 13.5c.3-.3 1.4-.3 2.3.3-.4 1.5-3 1.5-2.3-.3Zm1.9-16.9c1.5-.5 1.2.6 0 1.1v-1.1Zm-5.6 18.4c0-.5.4-1.1.8-.9 1.1.7-.2 2.7-.8.9Zm4.9 22.5c.1.4-1-.2-.8.4.7.9-.2 2.5-.9 1.5-1.2 2.2-2.2 2.1-2 .1-1.2-2.1 2.6-3.3 3.7-2Zm-2.8 15.6c-1.8-.1-.5-2.3.8-2-.9.4-.9 1.2-.8 2Zm.5 7.9c-.3-1 1.8-.6 1.8.5-.7.4-1.3.2-1.8-.5Zm2.4 16.6c-.4.2-1.8-.4-.9-.8.7-.1 2.1.3.9.8Zm21.9-2c-1.2-.1-.4-.9 0-1.4.1.1.6.7 0 1.4Zm-1-22.5c0 .4-.1 1.5-.7 1.6-.7-1.2-.7-2 .7-1.6Zm-3.5-6.4-.2.2c.8-.1.2 1.1-.3 1.2-.4-.3-.2-1.7.5-1.4Zm-6.4-41.2c.8.7-2.3.9-2.2-.1 1.2-.5 1.7-.3 2.2.1Zm-1.8 12c2 .1 2.6 3.6 0 2.4-.7-.5-.6-1.8 0-2.4Zm.2 75.7c-1.3-.7-.1-2.2.6-2 .9.6-.1 2-.6 2Zm-.3-24c-.5-.6.1-1.3.7-1.3 2.8-1.2 2.4 2.3-.7 1.3Zm3 13.6c-.9-.7.9-1.5 1-.5 0 .4-.9.5-1 .5Zm7-16.2c-.9.3-1.6-.9-1-1.5 1.1-.7 1.4.8 1 1.5Zm-1.1-26.6c.4-4.4 6.1.1 2.9.7.7 3.1-.8 1.6-.6-.3-1 .1-1.4.6-1.5 1.2-.9.3-.9-1.1-.8-1.6Zm3.3 57.6c-1.1 1.3-1 .5-.2-.8-.1 0 .7.6.2.8Zm1.5-9.5c-1 .5-2.4-.9-.4-1 .5 0 1.6.9.4 1Zm4.7 25h-.5c1.6 1.8 0 2.4-.4.6-.6-.7.4-2.1 1.1-.9 0-1.9 1.7.6-.2.3Zm.6-48.2c-1.7.1-1.2-1-.1-1.5.9-.2.1 1.4.1 1.5Zm3.9 15.8c-.7 1.1-1.4-.5-.7-1.1.9.2.9.6.7 1.1Zm5 20.9c-.3 0-.4-.6-.5-.8.5-.9 2.3.9.5.8Zm2.3-25c-.6-1.3.8-.6 1.1.1-.5.2-.9.1-1.1-.1Zm10.2-48.3c0 .1 0 .1-.1.1 0 0 .1 0 .1-.1Zm-4.2 40.5c-.5-.3-1 .1-.8-.7.1-.9 1.9.1.8.7Zm.8 33.7c-.6 1.7-.7-.9.2-1.1-.1.6.9 1-.2 1.1Zm2.4-25.3c-.6-1.4.3-2.8 1.6-1.9-.2.5-1.2 1.5-1.6 1.9Zm1.5 28.6c-.3.2-1.3 2.1-1.2.5-.4-1 1.5-1.6 1.2-.5Zm8.2-87.6c0 .6-.7.1-1 .2-.6-1 1.2-.9 1-.2Zm5.4 4c-.6.8-2.1.1-.8-.6.2.1 1 .5.8.6Zm.6-24.4c-2.1.4-.1-2.6.3-.3-.1.3-.3.3-.3.3Zm10.1 7.1c-.3-.2-.7-.6-.4-.9.8-.9.8.5.4.9Zm1-2c-1.2 2.1-2-2.8-.4-2.3.6.3.7 1.7.4 2.3Zm1.3-6c-.2 0-.4.2-.6.3-.7-.8.4-1.2.6-.3Zm5.2 42.6c-1.5-.8.9-1 .3-1.9-1.7-3.4 4.8 2-.3 1.9Zm4.4 3.9c-.3-.3-.7-1.1-.6-1.4.5.7 1.1.2.6 1.4Zm14.2-14.5c.5 0 1 .2.9.6-.5 0-.8-.2-.8.4-.4.8-1.4-1-.1-1Zm0 20.5c-1.2 1.3-2.2-.1-1.4-1.2 1.1-.6 2.8-.1 1.4 1.2Zm-11.3-58.3s0-.1 0 0c.1-.1.1 0 0 0Zm3.1 65.3c-.6.1-2.5.4-2.8-.7 1.6-1.1 2.8-.2 3.8-1.8.6 1.9 0 1.4-1.2 2.1-.3.2.1.2.2.4Zm.4 14.8c0-.1.1-.7.7-1.5 1.2-.5.3 2.3-.7 1.5Zm3.7-6.8c-1 2.4-3.1-.4-1.7-1.2.6 0 2.1.2 1.7 1.2Zm-.2-7.5c-.2.7-1 .3-1.4-.1.4-1.1 2.4-1 1.4.1Zm.9-59.5c.4-1.3 3-1.2 1.4.6-.8.2-1 0-1.4-.6Zm5 49.8c-.1-.4-.3-.8-.7-.9 1.4-2.9 1.8 2.8.7.9Zm1.6-4.1c-.1 0 0-.8-.1-.9 1.2.1 1.1.4.1.9Zm2.1 18c-.3.9-1.5.3-1.3-.6.5-.8 1.6-.3 1.3.6Zm.3-10.8c-.8-.4-.3-1.3.4-1.3.6.4 0 1.2-.4 1.3Zm8.3 8.7c-.3.2-.1-.7-.1-.8-.2 0-.4.1-.4-.2.1-1.8 1.6.7.5 1Zm1.6 26.3c.8-.9 2.1-1.1 1.8.7-.9.3-1.7.1-1.8-.7Zm20.8-31.1c.4 0 1.1.4.9.8-.7 1.1-2.6-.3-.9-.8Zm-1.5 2.1s.1 0 0 0Zm-8.4 22.6c-.3-.5-.9-.4-1.3-.4-.2-2.1 2.7-1.6 1.3.4Zm10.3 21.6c-.9-.9.5-4.7.8-1.8-.1 1.4.4 1.9-.8 1.8Zm.8-40.4c-.8-.1-1.4-1.6-1-2.2 1.7-.5 1.9.6 1 2.2Zm9.7-35.9c.4-.2.5 1 0 .8v-.8Zm-.6 86.6c1-1-1-1.4-.9-2.7.6-.2 1.5.6 1.7 1-.6.2.1.9 0 1.2-.1.2-.6.8-.8.5Zm1.2-78.2c-.4 0 .2-1-.5-.7-.2-2.1 1.7.2.5.7Zm2.9 56.8c-.2.7-.8-.1-.7-.7.6 0 1.2-.2.7.7Zm2.4-76.2c-.6.3-2.4-.8-2.2-1.1.8-.4 3.6-.1 2.2 1.1Zm14.8-10.1c.4.1 1.2-.6 1.2.1-1 1.7-2.2 0-1.2-.1Zm.7 31.9s-.5.4-.3.4c-.2.2-.4-.2-.6-.3.4.3.7-.3.9-.1Zm-.9-1.8c.2.8-.4.8-.8 1.1-1.6-.9.8-2.5.8-1.1Zm-5.9-44.8c.8.8-.1 1.8-.9 1.2-.1-.6.1-.7.1-1.2-1.3-.6.3-.6.8 0Zm-9.1 89.3c-.1-.3-.1-.5 0-.8.2-.8 1.7-1.7 2.5-1-1.9 0-2.1.6-2.5 1.8Zm4.3-82.1-.1.1c-1.7.5-1.3-.6.1-.1Zm-1.1 84.2c-1 .2-1.9-1.3-.8-2 .3.7 1.1 1.4.8 2Zm1.8-49.7c.4-.8 1.3-.3 1.3.4-.4.6-1.2 0-1.3-.4Zm2.1 11.6c-.8 2.2-1.9-2.7-.5-.4l.4-.4c.1.3.1.6.1.8Zm2-20.2c-1.1-.6-.4-1.8.6-1.8.8.6-.1 1.7-.6 1.8Zm2.2 26.1c-.1-.1 0-.2.1-.2-.1 0-.1.1-.1.2Zm-.6-48.7c.8-.4.7-.6.1-1.1-.6-2.4 4.1 2.7-.1 1.1Zm3.9 10.7c-1.2 1.4-2.3.8-2.3-1.1 1.2-.2 1.9.1 2.3 1.1Zm-1.3 44.8c-1 1.1-1-1.7.3-.4-.1.1-.3.2-.3.4Zm4.2-62.5c-.1 1.8-2.6-1.5-.4-.7.3.1.5.4.4.7Zm6.5 16.4c2 .1.1 1.4-.5 1.5.1-.7-.9-1.7.5-1.5Zm-1.9-17.3c-.1-.1-.2-.1-.2-.2.9-2.5 2.6.3.2.2Zm2.5 28.7c-.4 1-3.3.8-1.1-.3l-.5-.5c.7-.6 2.6.2 1.6.8Zm2.7-28c-.9 1.3-.3-1.3-.3-1.8.7.4.8 1.2.3 1.8Z"/>
</svg>
