<?xml version="1.0" standalone="no"?>
<!DOCTYPE svg PUBLIC "-//W3C//DTD SVG 20010904//EN"
 "http://www.w3.org/TR/2001/REC-SVG-20010904/DTD/svg10.dtd">
<svg version="1.0" xmlns="http://www.w3.org/2000/svg"
 width="512.000000pt" height="512.000000pt" viewBox="0 0 512.000000 512.000000"
 preserveAspectRatio="xMidYMid meet">

<g transform="translate(0.000000,512.000000) scale(0.100000,-0.100000)"
fill="fuchsia" stroke="none">
<path d="M2270 4949 c-134 -17 -290 -78 -415 -162 -151 -102 -304 -300 -355
-462 -7 -22 -14 -43 -16 -46 -2 -4 -36 2 -76 13 -105 30 -312 29 -423 -1 -108
-28 -248 -99 -335 -168 -138 -110 -254 -290 -301 -468 -31 -114 -31 -317 0
-430 35 -133 104 -259 204 -378 l37 -44 -30 -66 c-55 -122 -74 -209 -73 -342
0 -147 22 -236 90 -368 38 -75 64 -109 143 -187 78 -79 112 -105 187 -143 190
-98 396 -119 590 -62 18 6 25 0 44 -37 110 -216 320 -384 564 -449 114 -31
316 -31 430 0 145 39 289 120 393 221 l44 42 89 -41 c142 -66 221 -84 379 -84
162 0 248 20 387 88 255 126 430 360 477 638 l12 71 71 12 c339 57 615 311
704 649 31 114 31 317 0 430 -58 215 -197 407 -376 521 l-73 46 -7 81 c-21
244 -142 474 -325 620 -87 69 -228 140 -335 168 -96 26 -296 31 -390 10 -87
-19 -201 -65 -279 -112 -37 -22 -69 -39 -70 -37 -2 2 -22 32 -46 68 -196 293
-561 455 -920 409z m567 -1124 c201 -63 352 -233 383 -429 12 -74 7 -129 -17
-215 -22 -80 -63 -156 -168 -311 -106 -156 -129 -198 -146 -264 l-11 -46 -239
0 -239 0 -6 28 c-14 69 -44 126 -140 269 -106 156 -145 225 -170 296 -110 311
100 633 454 697 77 14 211 3 299 -25z m41 -1532 c-4 -130 -18 -157 -106 -200
-99 -49 -234 -36 -308 30 -55 47 -64 74 -64 182 l0 95 241 0 241 0 -4 -107z"/>
<path d="M727 1430 c-92 -24 -179 -97 -219 -185 -16 -38 -22 -69 -22 -125 0
-93 25 -155 91 -222 64 -65 129 -92 223 -92 93 0 155 25 222 91 65 64 92 129
92 223 0 56 -6 88 -23 126 -27 63 -101 136 -163 164 -54 24 -148 33 -201 20z"/>
<path d="M180 791 c-112 -36 -174 -119 -174 -231 0 -137 96 -234 234 -234 138
0 234 96 234 234 0 96 -44 169 -128 212 -43 22 -128 32 -166 19z"/>
</g>
</svg>
